<svg width="253" height="252" viewBox="0 0 253 252" fill="none" xmlns="http://www.w3.org/2000/svg">
<g clip-path="url(#clip0_266_21748)">
<path d="M0 122.733V130.04C1.16416 161.591 13.8061 191.585 36.1091 214.379C58.4121 237.173 88.0401 249.916 119.188 252H132.291C163.441 250.339 192.943 237.612 215.382 215.148C237.824 192.683 250.637 163.012 252.234 131.804V119.961C250.37 88.4357 237.483 58.8378 214.374 36.366C191.265 13.8942 161.034 0.980122 129.015 0.269531H122.211C90.1845 1.49669 59.8862 14.4183 36.8524 37.3739C13.8187 60.327 1.20952 90.6808 0 122.733ZM84.4141 74.3524C83.3256 74.5464 82.2168 74.5766 81.1383 74.3524C77.8449 73.6695 75.2092 71.6814 73.347 68.7886C71.4824 65.8984 70.2275 63.2878 67.9723 60.5563C65.7145 57.8248 61.3426 56.9379 58.6489 59.6744C55.9552 62.4109 54.9246 65.7245 54.9322 69.5647C54.9397 73.4049 55.2598 77.9255 56.4416 81.4104C57.6233 84.8953 58.9715 87.3143 61.2947 90.1643C63.6155 93.0167 65.7674 94.4933 69.3506 95.7154C72.9338 96.935 77.2503 95.3879 80.4404 93.813C83.6305 92.2381 83.7842 87.836 87.6899 87.7074C91.5981 87.5815 90.3659 94.5437 89.2194 97.3004C88.0754 100.06 86.2914 103.272 83.8472 105.535C81.4029 107.798 77.9684 109.244 75.3428 110.638C78.6614 111.58 81.5314 112.994 84.4721 114.864C87.4127 116.733 89.3555 119.351 90.2047 122.738C91.0513 126.127 90.0182 130.696 86.4098 132.036C82.804 133.379 78.5807 132.376 75.9097 129.977C73.2387 127.579 72.1149 125.003 70.3611 122.171C68.6073 119.339 66.5057 116.063 62.7436 116.181C58.9815 116.3 56.6583 119.165 55.6075 122.652C54.5542 126.137 54.8944 131.51 55.4361 135.08C55.9779 138.653 57.2202 142.121 59.0269 145.096C60.8361 148.072 62.5597 150.103 65.4524 152.026C68.3427 153.951 72.9212 155.188 76.4061 153.782C79.891 152.376 81.9724 151.751 84.3562 148.125C86.7399 144.499 91.2076 146.263 90.2148 150.456C89.2219 154.652 89.1867 157.464 86.7021 160.551C84.2176 163.637 82.8443 165.016 79.5685 166.772C76.2927 168.531 72.3164 169.12 68.5392 169.35C64.762 169.579 60.1054 168.831 56.7767 167.505C53.4505 166.18 51.1575 164.476 48.4436 162.231C45.7323 159.984 44.2204 157.547 42.5069 154.561C40.796 151.572 39.7351 148.213 39.0598 144.653C38.3845 141.092 38.3517 135.607 39.0548 132.054C39.7603 128.501 40.9799 125.165 42.8169 122.209C44.6538 119.253 46.4681 117.109 49.1996 114.985C51.9311 112.86 55.0708 111.245 58.4599 110.638C57.011 108.657 53.5286 108.166 51.3465 106.412C49.1643 104.658 47.3576 103.134 45.5332 100.886C43.7064 98.6384 42.265 96.4664 41.1286 93.6996C39.9947 90.9303 39.1732 87.8108 38.8053 84.6837C38.4374 81.554 38.4399 77.1443 39.0548 74.0979C39.6696 71.0539 40.5767 68.1057 42.0231 65.475C43.4695 62.8443 44.6866 61.0477 46.8057 58.9184C48.9249 56.7892 50.7568 55.5822 53.4404 54.2139C56.1215 52.8432 59.3671 52.0091 62.4942 51.6765C65.6213 51.3413 69.9428 51.4472 72.9918 52.0091C76.0407 52.571 78.8 53.6041 81.4458 54.8943C84.0941 56.1844 86.0016 57.6888 88.0049 59.9264C90.0081 62.1665 90.8523 65.8102 90.4617 68.8088C90.0711 71.8073 87.264 74.1004 84.4141 74.3524ZM134.559 67.2969C134.559 66.2688 134.73 65.1147 134.811 64.2731C134.811 61.0603 135.146 58.8907 132.719 56.2852C130.29 53.6797 132.344 50.5199 135.819 51.422C139.293 52.3241 142.907 50.6307 145.898 51.422C148.889 52.2132 153.498 49.8672 155.41 52.2409C157.323 54.6146 153.102 56.3457 152.47 58.7496C151.835 61.151 151.474 65.2583 151.693 68.3048C151.913 71.3513 151.565 75.1386 151.693 78.3841C151.822 81.6296 151.567 85.3892 151.693 88.7154C151.819 92.0415 151.484 95.718 151.693 99.0467C151.903 102.375 151.905 105.291 151.693 108.622C151.482 111.953 151.797 115.614 151.693 118.953C151.59 122.292 151.751 125.727 151.693 129.033C151.635 132.339 151.749 136.151 151.693 139.364C151.638 142.577 151.782 146.462 151.693 149.443C151.605 152.424 151.444 156.302 153.142 158.326C154.841 160.349 157.277 163.539 153.961 164.31C150.854 165.033 146.974 164.572 143.63 164.562C140.286 164.552 136.159 165.033 133.047 164.31C130.28 163.665 131.689 160.666 133.236 158.955C134.783 157.247 134.811 154.012 134.811 151.711C134.727 150.854 134.559 149.715 134.559 148.687C134.559 145.782 135.806 140.536 132.233 139.17C128.66 137.804 124.661 139.671 120.7 138.86C116.738 138.048 115.118 142.778 115.66 145.915C116.202 149.053 114.975 154.722 116.245 157.174C117.517 159.626 121.818 163.348 117.676 164.31C114.566 165.033 110.676 164.512 107.345 164.562C104.013 164.612 100.123 164.9 97.0132 164.31C92.7925 163.511 97.172 159.704 98.0136 156.995C98.8578 154.289 98.4747 149.158 98.5251 145.663C98.5755 142.168 98.4974 137.328 98.5251 133.568C98.5529 129.809 98.4999 125.606 98.5251 121.725C98.5503 117.845 98.4873 113.556 98.5251 109.63C98.5629 105.704 98.447 101.715 98.5251 97.7867C98.6033 93.8583 98.3513 89.8619 98.5251 85.9436C98.699 82.0252 98.1522 77.7113 98.5251 73.8484C98.8981 69.9855 97.6835 65.722 98.5251 62.0052C99.3668 58.2885 94.6723 56.4062 95.2494 53.1858C95.8264 49.9655 102.126 51.5782 105.329 51.422C108.531 51.2657 113.39 51.1473 117.172 51.422C120.954 51.6966 118.535 56.1567 116.592 58.4019C114.647 60.6445 116.189 66.3242 115.66 69.3127C115.131 72.3012 116.242 77.288 120.196 76.8722C124.149 76.4564 128.012 77.5601 131.804 76.6379C135.599 75.7181 134.559 70.2299 134.559 67.2969ZM213.681 77.3762C213.85 79.1199 213.847 81.1912 213.681 82.9198C213.681 94.2968 205.111 103.991 194.278 106.858C183.443 109.726 170.189 106.137 163.726 96.0859C157.26 86.0368 157.713 72.5507 164.104 62.5722C170.491 52.5937 184.33 49.3582 194.838 52.8784C205.348 56.3961 213.681 66.2411 213.681 77.3762ZM213.681 138.356C213.91 140.261 213.908 142.516 213.681 144.403C213.462 155.392 204.993 165.114 194.473 168.284C183.952 171.454 170.058 167.719 163.726 157.822C157.391 147.924 157.476 134.402 164.104 124.56C170.733 114.717 183.796 110.915 194.787 113.909C205.781 116.9 213.457 127.14 213.681 138.356ZM99.2811 183.209C99.5784 182.14 99.7422 180.419 99.5331 179.177C99.3592 178.603 99.2786 178.106 98.7771 177.665C99.7851 176.972 100.977 176.907 102.053 176.405C102.219 179.381 101.829 182.796 102.053 185.729C102.277 188.662 101.284 191.983 102.809 194.296C103.126 193.81 103.565 193.311 104.069 193.036C103.978 195.541 99.4751 196.34 99.7851 193.288C97.0788 197.053 91.9257 195.08 90.8825 191.355C89.8418 187.629 91.5503 182.513 95.7533 182.705C92.2558 184.519 93.173 188.057 93.0647 191.441C92.9563 194.825 98.9081 195.969 99.4751 192.474C100.042 188.979 100.372 184.36 97.5172 182.453C98.2328 182.292 98.8578 182.765 99.2811 183.209ZM146.906 176.657C148.687 176.897 148.365 179.807 146.402 179.429C144.436 179.049 145.069 176.41 146.906 176.657ZM57.704 195.052C57.6309 195.052 56.1115 194.986 56.4441 194.548C55.4185 194.407 56.1417 196.806 55.9401 197.824C55.7385 198.842 56.2047 200.399 57.2 200.848C55.605 200.848 54.0074 200.848 52.4123 200.848C54.5063 198.847 53.6345 195.165 53.6723 192.28C53.7101 189.395 54.2795 185.436 52.6643 183.209C53.826 183.118 54.8213 182.463 55.9401 182.201C56.0812 182.836 55.6402 183.788 56.1921 184.217C58.9236 180.293 64.321 182.677 65.0064 186.994C65.6893 191.313 62.7084 196.743 57.704 195.052ZM70.0511 182.201C69.9982 182.947 69.9327 184.129 70.8071 183.209C69.779 184.857 69.9352 187.286 70.0511 189.256C70.167 191.227 69.3355 193.858 71.0591 195.052C69.5472 195.052 68.0353 195.052 66.5234 195.052C68.0529 193.729 67.4708 191.255 67.5313 189.256C67.5918 187.258 67.8513 184.612 66.5234 183.209C67.7732 183.126 68.8038 182.329 70.0511 182.201ZM74.3348 182.453C75.9752 182.362 78.0037 185.824 75.5947 186.233C75.6099 184.94 75.1916 183.453 74.0828 182.705C73.1656 182.581 72.1375 182.171 71.311 182.957C71.5403 181.858 73.6217 182.047 74.3348 182.453ZM85.1701 182.453C91.3562 184.408 90.3281 195.38 83.4062 195.304C76.4842 195.226 75.3906 184.217 81.8943 182.453C82.9375 182.171 84.1395 182.128 85.1701 182.453ZM108.1 192.28C108.849 195.304 112.671 195.498 113.624 192.512C114.579 189.529 114.138 185.6 112.888 183.209C114.093 183.262 115.015 182.387 116.164 182.201C116.111 184.393 116.237 187.676 116.164 189.76C116.091 191.844 115.826 195.548 118.18 193.288C117.976 195.755 113.783 196.09 113.896 193.288C112.304 195.843 107.876 196.279 106.261 193.364C104.646 190.448 106.674 185.774 104.573 183.209C105.777 183.262 106.699 182.387 107.848 182.201C108.846 182.821 107.813 185.729 108.1 186.989C108.388 188.248 107.929 190.887 108.1 192.28ZM147.914 182.201C148.042 184.207 147.742 187.364 147.914 189.256C148.085 191.149 146.991 194.949 149.426 193.792C147.871 196.879 144.988 194.611 145.394 191.776C145.8 188.941 145.588 185.676 144.638 183.209C145.792 183.1 146.76 182.362 147.914 182.201ZM158.497 182.453C164.917 184.043 164.247 195.133 157.237 195.304C150.227 195.475 148.828 184.333 155.473 182.453C156.481 182.168 157.509 182.208 158.497 182.453ZM168.072 183.965C169.045 183.69 169.463 182.037 170.862 182.219C172.263 182.402 173.538 182.158 174.687 183.146C175.836 184.136 176.025 185.23 175.884 186.737C175.743 188.243 176 190.048 175.884 191.524C175.768 193.001 175.836 194.321 177.144 195.052C175.632 195.052 174.12 195.052 172.608 195.052C174.611 192.134 173.286 188.883 173.419 185.421C173.553 181.959 167.4 182.234 167.82 185.981C167.614 188.243 167.442 191.302 167.82 193.54C168.022 194.203 168.135 194.732 168.828 195.052C167.316 195.052 165.804 195.052 164.293 195.052C165.82 193.815 165.323 191.161 165.3 189.256C165.278 187.351 165.903 184.663 164.293 183.461C165.187 182.743 166.51 182.692 167.568 182.201C168.173 182.576 167.442 183.617 168.072 183.965ZM189.743 188.5C189.183 189.332 186.545 188.619 185.459 188.752C184.373 188.886 182.098 188.858 180.923 188.752C180.389 194.377 186.333 195.581 189.743 192.028C188.082 195.81 182.4 196.496 179.978 193.225C177.557 189.954 177.892 185.217 181.616 182.894C185.338 180.568 190.471 184 189.743 188.5ZM195.79 182.453C192.502 181.815 192.462 185.668 194.593 186.926C196.725 188.183 198.509 188.16 199.759 190.579C201.009 192.996 197.834 195.359 195.79 195.304C193.744 195.246 189.448 194.135 192.011 192.028C191.59 195.092 197.925 196.398 198.252 193.23C198.58 190.063 194.724 189.763 192.704 187.807C190.683 185.852 192.018 180.86 195.79 182.453ZM124.731 182.705C121.866 184.504 121.428 188.841 122.66 192.084C123.892 195.327 129.018 194.351 130.779 192.028C128.864 196.347 122.967 196.135 120.72 192.512C118.472 188.886 119.918 182.307 124.731 182.705ZM128.511 186.233C128.695 184.728 127.994 183.214 126.747 182.453C128.564 182.332 131.255 185.464 128.511 186.233ZM137.078 182.705C134.206 184.529 133.866 188.823 135.058 192.033C136.249 195.246 141.35 194.54 143.126 192.028C141.448 196.357 135.221 196.133 133.067 192.512C130.915 188.888 132.422 182.493 137.078 182.705ZM140.858 186.233C141.042 184.726 140.342 183.214 139.094 182.453C140.982 182.337 143.942 185.668 140.858 186.233ZM197.554 185.729C197.935 184.305 196.823 183.408 196.042 182.453C197.839 182.156 200.104 185.021 197.554 185.729Z" stroke="#DED3CF" stroke-width="0.0755947"/>
<path d="M81.1381 74.3524C82.1838 74.4482 83.3681 74.423 84.4139 74.3524C87.2638 74.1005 90.0709 71.8074 90.4614 68.8088C90.852 65.8102 90.0079 62.1666 88.0046 59.9264C86.0013 57.6888 84.0938 56.1845 81.4455 54.8944C78.7997 53.6042 76.0405 52.5711 72.9915 52.0092C69.9425 51.4472 65.621 51.3414 62.4939 51.6765C59.3668 52.0092 56.1213 52.8432 53.4402 54.214C50.7566 55.5823 48.9246 56.7893 46.8055 58.9185C44.6863 61.0478 43.4692 62.8444 42.0228 65.4751C40.5765 68.1058 39.6693 71.054 39.0545 74.0979C38.4397 77.1444 38.4371 81.5541 38.805 84.6837C39.1729 87.8108 39.9944 90.9304 41.1283 93.6997C42.2648 96.4664 43.7061 98.6385 45.533 100.886C47.3573 103.134 49.164 104.658 51.3462 106.412C53.5284 108.166 57.0108 108.657 58.4597 110.638C55.0705 111.245 51.9308 112.86 49.1993 114.985C46.4678 117.109 44.6535 119.253 42.8166 122.209C40.9796 125.165 39.76 128.501 39.0545 132.054C38.3515 135.607 38.3842 141.093 39.0595 144.653C39.7348 148.214 40.7957 151.572 42.5067 154.561C44.2201 157.547 45.732 159.984 48.4434 162.231C51.1572 164.476 53.4503 166.18 56.7764 167.505C60.1051 168.831 64.7617 169.579 68.539 169.35C72.3162 169.121 76.2925 168.531 79.5682 166.772C82.844 165.016 84.2173 163.637 86.7019 160.551C89.1864 157.464 89.2217 154.652 90.2145 150.456C91.2073 146.263 86.7397 144.499 84.3559 148.125C81.9721 151.751 79.8908 152.376 76.4059 153.782C72.9209 155.188 68.3424 153.951 65.4522 152.026C62.5594 150.103 60.8359 148.072 59.0266 145.097C57.2199 142.121 55.9776 138.653 55.4359 135.08C54.8941 131.51 54.5539 126.137 55.6072 122.652C56.658 119.165 58.9813 116.3 62.7434 116.182C66.5055 116.063 68.607 119.339 70.3608 122.171C72.1146 125.003 73.2384 127.579 75.9094 129.978C78.5805 132.376 82.8037 133.379 86.4096 132.036C90.0179 130.696 91.0511 126.127 90.2044 122.738C89.3552 119.351 87.4125 116.733 84.4718 114.864C81.5312 112.994 78.6611 111.58 75.3425 110.638C77.9681 109.244 81.4027 107.798 83.8469 105.535C86.2911 103.272 88.0752 100.06 89.2192 97.3005C90.3657 94.5438 91.5979 87.5815 87.6896 87.7075C83.7839 87.836 83.6302 92.2382 80.4401 93.813C77.25 95.3879 72.9335 96.9351 69.3503 95.7155C65.7672 94.4934 63.6152 93.0168 61.2945 90.1643C58.9712 87.3144 57.6231 84.8954 56.4413 81.4105C55.2595 77.9256 54.9395 73.405 54.9319 69.5648C54.9244 65.7246 55.955 62.411 58.6487 59.6745C61.3423 56.9379 65.7142 57.8249 67.972 60.5564C70.2272 63.2879 71.4821 65.8984 73.3468 68.7887C75.2089 71.6814 77.8447 73.6696 81.1381 74.3524Z" stroke="#293148" stroke-width="0.0755947"/>
<path d="M97.0134 164.31C100.395 164.569 103.953 164.353 107.345 164.31C110.736 164.267 114.309 164.685 117.676 164.31C121.819 163.347 117.517 159.626 116.245 157.174C114.975 154.722 116.202 149.052 115.66 145.915C115.118 142.778 116.739 138.048 120.7 138.86C124.661 139.671 128.66 137.804 132.233 139.17C135.806 140.535 134.559 145.782 134.559 148.687C134.642 149.544 134.811 150.683 134.811 151.711C134.811 154.011 134.783 157.247 133.236 158.955C131.689 160.666 130.28 163.665 133.047 164.31C136.426 164.688 139.964 164.32 143.378 164.31C146.793 164.3 150.56 164.69 153.961 164.31C157.278 163.539 154.841 160.349 153.142 158.325C151.444 156.302 151.605 152.424 151.694 149.443C151.782 146.462 151.638 142.576 151.694 139.364C151.749 136.151 151.636 132.338 151.694 129.032C151.752 125.726 151.59 122.292 151.694 118.953C151.797 115.614 151.482 111.953 151.694 108.622C151.905 105.291 151.903 102.375 151.694 99.0464C151.484 95.7177 151.82 92.0413 151.694 88.7151C151.568 85.389 151.822 81.6294 151.694 78.3838C151.565 75.1383 151.913 71.351 151.694 68.3045C151.474 65.2581 151.835 61.1508 152.47 58.7494C153.102 56.3455 157.323 54.6143 155.41 52.2407C153.498 49.867 148.889 52.2129 145.898 51.4217C142.907 50.6305 139.294 52.3238 135.819 51.4217C132.344 50.5196 130.29 53.6795 132.719 56.285C135.146 58.8905 134.811 61.0601 134.811 64.2728C134.811 65.3009 134.639 66.455 134.559 67.2966C134.559 70.2297 135.599 75.7179 131.805 76.6376C128.012 77.5599 124.149 76.4562 120.196 76.872C116.242 77.2877 115.131 72.301 115.66 69.3125C116.189 66.324 114.647 60.6443 116.592 58.4016C118.535 56.1565 120.954 51.6964 117.172 51.4217C113.39 51.1471 108.532 51.2655 105.329 51.4217C102.126 51.578 95.8265 49.9653 95.2495 53.1856C94.6725 56.4059 99.3669 58.2882 98.5253 62.005C97.6837 65.7217 98.8982 69.9853 98.5253 73.8482C98.1523 77.7111 98.6991 82.025 98.5253 85.9433C98.3514 89.8616 98.6034 93.8581 98.5253 97.7865C98.4472 101.715 98.5631 105.704 98.5253 109.63C98.4875 113.556 98.5505 117.844 98.5253 121.725C98.5001 125.605 98.553 129.808 98.5253 133.568C98.4976 137.328 98.5757 142.168 98.5253 145.663C98.4749 149.158 98.8579 154.289 98.0138 156.995C97.1721 159.704 92.7927 163.511 97.0134 164.31ZM134.559 94.0068C134.634 94.7829 134.811 95.8336 134.811 96.7786C134.811 104.169 134.811 111.562 134.811 118.953C134.811 119.981 134.639 121.135 134.559 121.977C134.559 124.726 135.544 131.693 131.225 131.746C126.906 131.799 122.607 132.628 118.513 131.472C114.418 130.312 115.784 124.527 115.66 120.969C115.537 117.411 115.642 111.623 115.66 107.866C115.678 104.109 115.489 98.3106 115.66 94.7627C115.831 91.2148 114.335 85.3159 118.452 84.1996C122.567 83.0808 126.838 83.9854 131.2 84.0106C135.562 84.0358 134.559 91.172 134.559 94.0068Z" stroke="#293148" stroke-width="0.0755947"/>
<path d="M213.681 82.9197C213.681 81.0727 213.681 79.2231 213.681 77.3761C213.681 66.241 205.348 56.3961 194.838 52.8784C184.331 49.3582 170.492 52.5936 164.104 62.5721C157.714 72.5506 157.26 86.0367 163.726 96.0858C170.189 106.137 183.444 109.726 194.279 106.858C205.112 103.99 213.681 94.2967 213.681 82.9197ZM192.263 101.314C191.436 101.498 190.812 101.516 189.995 101.314C185.402 100.175 183.141 95.7834 180.861 91.8021C178.58 87.8233 176.945 82.9197 175.887 78.1295C174.828 73.3419 173.329 66.9037 175.111 61.7356C176.89 56.5674 183.741 57.4619 186.447 61.5214C189.151 65.5833 191.384 68.9423 193.1 73.5157C194.816 78.0892 196.38 83.3254 197.051 88.2114C197.721 93.0973 198.23 99.9915 192.263 101.314Z" stroke="#913637" stroke-width="0.0755947"/>
<path d="M189.995 101.314C190.688 101.4 191.567 101.385 192.262 101.314C198.229 99.9912 197.72 93.0969 197.05 88.211C196.38 83.3251 194.815 78.0889 193.099 73.5154C191.383 68.9419 189.15 65.583 186.447 61.521C183.74 57.4616 176.889 56.5671 175.11 61.7352C173.328 66.9034 174.828 73.3415 175.886 78.1292C176.944 82.9194 178.58 87.823 180.86 91.8018C183.141 95.7831 185.401 100.175 189.995 101.314Z" stroke="#DFD2CE" stroke-width="0.0755947"/>
<path d="M134.559 67.2972C134.639 66.4556 134.811 65.3015 134.811 64.2734C134.73 65.1151 134.559 66.2691 134.559 67.2972Z" stroke="#8B8890" stroke-width="0.0755947"/>
<path d="M84.414 74.3525C83.3682 74.4231 82.1839 74.4483 81.1382 74.3525C82.2167 74.5768 83.3254 74.5466 84.414 74.3525Z" stroke="#8C8A93" stroke-width="0.0755947"/>
<path d="M213.681 82.9201C213.847 81.1915 213.849 79.1202 213.681 77.3765C213.681 79.2235 213.681 81.073 213.681 82.9201Z" stroke="#B98686" stroke-width="0.0755947"/>
<path d="M134.558 121.977C134.558 120.949 134.73 119.795 134.81 118.953C134.81 111.563 134.81 104.169 134.81 96.7787C134.735 96.0026 134.558 94.9519 134.558 94.0069C134.558 91.1721 135.561 84.036 131.2 84.0108C126.838 83.9856 122.567 83.081 118.452 84.1998C114.334 85.3161 115.831 91.215 115.66 94.7629C115.488 98.3108 115.677 104.109 115.66 107.866C115.642 111.623 115.536 117.411 115.66 120.969C115.783 124.527 114.418 130.313 118.512 131.472C122.607 132.628 126.906 131.799 131.225 131.746C135.544 131.693 134.558 124.726 134.558 121.977Z" stroke="#DED3CF" stroke-width="0.0755947"/>
<path d="M134.811 96.7791C134.811 95.8342 134.634 94.7834 134.559 94.0073C134.559 94.9523 134.735 96.003 134.811 96.7791Z" stroke="#8D8A92" stroke-width="0.0755947"/>
<path d="M192.262 101.315C191.567 101.385 190.688 101.401 189.995 101.315C190.811 101.517 191.436 101.499 192.262 101.315Z" stroke="#B27A7A" stroke-width="0.0755947"/>
<path d="M213.681 144.404C213.721 142.393 213.721 140.367 213.681 138.356C213.456 127.14 205.781 116.9 194.787 113.909C183.795 110.915 170.733 114.718 164.103 124.56C157.476 134.403 157.39 147.924 163.725 157.822C170.057 167.72 183.952 171.454 194.472 168.284C204.992 165.114 213.461 155.393 213.681 144.404ZM198.31 125.757C198.617 127.652 198.536 129.932 198.31 131.805C198.227 135.902 197.035 140.609 195.792 144.406C194.548 148.201 193.25 151.621 191.022 155.007C188.792 158.394 187.673 161.256 183.188 162.544C178.703 163.832 175.719 159.692 175.631 155.239C175.533 154.428 175.556 153.508 175.631 152.719C175.631 146.861 177.44 141.166 179.406 135.831C181.369 130.494 183.155 127.256 186.781 122.544C190.405 117.832 197.937 118.898 198.31 125.757Z" stroke="#913637" stroke-width="0.0755947"/>
<path d="M134.559 121.976C134.639 121.135 134.811 119.981 134.811 118.953C134.73 119.794 134.559 120.948 134.559 121.976Z" stroke="#8D8A93" stroke-width="0.0755947"/>
<path d="M175.632 152.719C175.632 153.558 175.614 154.399 175.632 155.238C175.72 159.691 178.704 163.831 183.189 162.543C187.674 161.256 188.793 158.393 191.023 155.007C193.25 151.62 194.548 148.201 195.793 144.406C197.035 140.608 198.227 135.901 198.31 131.804C198.351 129.806 198.419 127.752 198.31 125.756C197.937 118.897 190.406 117.832 186.782 122.544C183.156 127.256 181.369 130.494 179.407 135.831C177.441 141.165 175.632 146.86 175.632 152.719Z" stroke="#DFD2CE" stroke-width="0.0755947"/>
<path d="M198.31 131.805C198.537 129.933 198.617 127.652 198.31 125.757C198.418 127.753 198.35 129.807 198.31 131.805Z" stroke="#BD8689" stroke-width="0.0755947"/>
<path d="M213.681 144.404C213.907 142.516 213.91 140.261 213.681 138.356C213.721 140.367 213.721 142.393 213.681 144.404Z" stroke="#B98987" stroke-width="0.0755947"/>
<path d="M134.811 151.711C134.811 150.683 134.642 149.544 134.559 148.687C134.559 149.715 134.727 150.854 134.811 151.711Z" stroke="#8C8992" stroke-width="0.0755947"/>
<path d="M175.632 155.239C175.614 154.399 175.632 153.558 175.632 152.719C175.556 153.507 175.534 154.427 175.632 155.239Z" stroke="#AF807D" stroke-width="0.0755947"/>
<path d="M117.676 164.311C114.309 164.686 110.736 164.268 107.344 164.311C103.953 164.354 100.395 164.57 97.0132 164.311C100.123 164.9 104.013 164.613 107.344 164.563C110.676 164.512 114.566 165.034 117.676 164.311Z" stroke="#6F707A" stroke-width="0.0755947"/>
<path d="M153.961 164.31C150.56 164.69 146.793 164.3 143.378 164.31C139.964 164.32 136.426 164.688 133.047 164.31C136.159 165.033 140.286 164.552 143.63 164.562C146.974 164.572 150.854 165.033 153.961 164.31Z" stroke="#6F707A" stroke-width="0.0755947"/>
<path d="M99.5332 179.177C99.8104 180.086 100.229 183.327 99.2812 183.208C98.8579 182.765 98.233 182.291 97.5174 182.452C100.372 184.36 100.042 188.979 99.4753 192.474C98.9083 195.969 92.9565 194.825 93.0648 191.441C93.1732 188.056 92.256 184.519 95.7535 182.704C91.5504 182.513 89.842 187.628 90.8827 191.355C91.9259 195.079 97.0789 197.052 99.7852 193.288C99.4753 196.339 103.978 195.54 104.069 193.036C103.565 193.31 103.126 193.809 102.809 194.296C101.284 191.982 102.277 188.661 102.053 185.728C101.829 182.795 102.219 179.381 102.053 176.405C100.977 176.906 99.7852 176.972 98.7773 177.665C99.2787 178.106 99.3593 178.602 99.5332 179.177Z" stroke="#493848" stroke-width="0.0755947"/>
<path d="M146.905 176.657C145.069 176.41 144.436 179.048 146.401 179.429C148.364 179.807 148.687 176.896 146.905 176.657Z" stroke="#4B3B4A" stroke-width="0.0755947"/>
<path d="M99.2808 183.208C100.228 183.327 99.8099 180.086 99.5327 179.177C99.7419 180.419 99.5781 182.14 99.2808 183.208Z" stroke="#7C6E77" stroke-width="0.0755947"/>
<path d="M56.4443 194.548C56.6535 194.576 56.9029 194.543 56.9483 194.548C56.9432 193.804 55.5725 193.394 55.9404 192.028C56.3082 190.662 56.0789 190.143 55.9404 188.5C55.8018 186.857 55.9706 183.97 57.7672 183.272C59.5613 182.574 59.4757 182.246 60.9976 183.191C62.5221 184.136 62.7388 186.9 62.7439 188.5C62.7489 190.1 62.6985 190.453 62.4087 191.693C62.119 192.933 61.9577 193.132 61.295 194.107C60.6323 195.08 59.5361 195.082 58.4602 195.052C58.2082 195.044 57.9562 195.052 57.7042 195.052C62.7086 196.743 65.6896 191.312 65.0067 186.993C64.3213 182.677 58.9238 180.293 56.1923 184.217C55.6405 183.788 56.0815 182.836 55.9404 182.201C54.8215 182.463 53.8262 183.118 52.6646 183.209C54.2798 185.436 53.7103 189.395 53.6725 192.28C53.6347 195.165 54.5066 198.847 52.4126 200.847C54.0076 200.847 55.6052 200.847 57.2003 200.847C56.2049 200.399 55.7388 198.842 55.9404 197.824C56.1419 196.806 55.4187 194.407 56.4443 194.548Z" stroke="#473646" stroke-width="0.0755947"/>
<path d="M70.0512 182.201C68.8039 182.329 67.7733 183.125 66.5234 183.209C67.8514 184.612 67.5918 187.258 67.5314 189.256C67.4709 191.254 68.053 193.729 66.5234 195.052C68.0353 195.052 69.5472 195.052 71.0591 195.052C69.3356 193.857 70.1671 191.227 70.0512 189.256C69.9353 187.286 69.7791 184.857 70.8071 183.209C69.9328 184.128 69.9983 182.947 70.0512 182.201Z" stroke="#4B3B4A" stroke-width="0.0755947"/>
<path d="M74.0828 182.705C74.1131 182.71 74.2492 182.458 74.3348 182.453C73.6217 182.048 71.5403 181.859 71.311 182.957C72.1375 182.171 73.1656 182.582 74.0828 182.705Z" stroke="#716568" stroke-width="0.0755947"/>
<path d="M81.894 182.453C82.1007 182.463 82.3401 182.7 82.398 182.705C82.7684 182.733 84.051 182.74 84.4139 182.705C84.56 182.69 84.8599 182.443 85.1698 182.453C84.1392 182.128 82.9373 182.171 81.894 182.453Z" stroke="#74686B" stroke-width="0.0755947"/>
<path d="M108.101 192.28C107.337 189.193 108.148 185.489 107.849 182.201C106.699 182.387 105.777 183.262 104.573 183.209C106.674 185.774 104.646 190.448 106.261 193.364C107.876 196.279 112.304 195.843 113.896 193.288C113.783 196.09 117.976 195.755 118.18 193.288C115.826 195.548 116.091 191.844 116.164 189.76C116.237 187.676 116.111 184.393 116.164 182.201C115.015 182.387 114.093 183.262 112.888 183.209C114.138 185.6 114.579 189.528 113.624 192.512C112.671 195.498 108.849 195.304 108.101 192.28Z" stroke="#473747" stroke-width="0.0755947"/>
<path d="M108.1 192.28C107.929 190.887 108.388 188.248 108.1 186.988C107.813 185.728 108.846 182.821 107.848 182.201C108.148 185.489 107.337 189.193 108.1 192.28Z" stroke="#84757C" stroke-width="0.0755947"/>
<path d="M147.913 182.201C146.759 182.362 145.792 183.1 144.638 183.209C145.588 185.676 145.799 188.941 145.394 191.776C144.988 194.611 147.871 196.879 149.425 193.792C146.991 194.948 148.085 191.149 147.913 189.256C147.742 187.364 148.042 184.206 147.913 182.201Z" stroke="#493949" stroke-width="0.0755947"/>
<path d="M155.473 182.453C155.728 182.451 155.884 182.698 155.977 182.705C156.378 182.735 157.59 182.735 157.993 182.705C158.023 182.703 158.326 182.466 158.497 182.453C157.509 182.209 156.481 182.168 155.473 182.453Z" stroke="#706367" stroke-width="0.0755947"/>
<path d="M167.82 193.54C167.198 191.489 167.397 188.032 167.82 185.98C167.399 182.233 173.553 181.959 173.419 185.421C173.286 188.883 174.611 192.134 172.608 195.052C174.12 195.052 175.632 195.052 177.144 195.052C175.836 194.321 175.768 193.001 175.884 191.524C176 190.047 175.743 188.243 175.884 186.736C176.025 185.23 175.836 184.136 174.687 183.146C173.538 182.158 172.263 182.402 170.862 182.218C169.463 182.037 169.045 183.69 168.072 183.965C167.152 184.224 167.747 182.999 167.568 182.201C166.51 182.692 165.187 182.742 164.292 183.461C165.903 184.663 165.278 187.351 165.3 189.256C165.323 191.161 165.819 193.815 164.292 195.052C165.804 195.052 167.316 195.052 168.828 195.052C168.135 194.732 168.022 194.203 167.82 193.54Z" stroke="#473746" stroke-width="0.0755947"/>
<path d="M168.072 183.965C167.442 183.617 168.173 182.576 167.568 182.201C167.747 182.999 167.152 184.224 168.072 183.965Z" stroke="#90818A" stroke-width="0.0755947"/>
<path d="M180.923 188.752C180.936 188.626 180.923 188.5 180.923 188.5C180.923 186.343 181.097 182.888 183.954 182.46C186.809 182.029 187.734 186.275 187.223 188.5C188.062 188.5 188.903 188.5 189.742 188.5C190.471 184 185.338 180.568 181.616 182.894C177.892 185.217 177.557 189.954 179.978 193.225C182.4 196.496 188.082 195.81 189.742 192.028C186.333 195.581 180.389 194.376 180.923 188.752Z" stroke="#4B3B4A" stroke-width="0.0755947"/>
<path d="M195.79 182.453C192.018 180.86 190.683 185.852 192.704 187.807C194.725 189.763 198.58 190.063 198.252 193.23C197.925 196.397 191.59 195.092 192.011 192.028C189.448 194.135 193.744 195.246 195.79 195.304C197.834 195.359 201.009 192.996 199.759 190.579C198.509 188.16 196.725 188.183 194.594 186.925C192.462 185.668 192.502 181.815 195.79 182.453Z" stroke="#4B3B49" stroke-width="0.0755947"/>
<path d="M74.0825 182.705C75.1912 183.453 75.6095 184.94 75.5944 186.233C78.0034 185.824 75.9749 182.362 74.3345 182.453C74.2488 182.458 74.1128 182.71 74.0825 182.705Z" stroke="#4C3C48" stroke-width="0.0755947"/>
<path d="M85.17 182.452C84.8601 182.442 84.5602 182.689 84.4141 182.704C88.3929 184.543 87.4454 192.871 84.477 194.862C81.5112 196.855 80.2362 192.304 80.1303 190.767C79.896 189.467 79.901 188.021 80.1303 186.736C80.2311 185.259 80.8737 183.273 82.3982 182.704C82.3402 182.699 82.1009 182.462 81.8942 182.452C75.3906 184.216 76.4842 195.225 83.4061 195.303C90.3281 195.379 91.3562 184.407 85.17 182.452Z" stroke="#483847" stroke-width="0.0755947"/>
<path d="M82.3984 182.705C80.8739 183.275 80.2314 185.26 80.1306 186.737C80.0424 188.04 80.0424 189.466 80.1306 190.769C80.2364 192.306 81.5115 196.856 84.4773 194.863C87.4457 192.873 88.3931 184.545 84.4143 182.705C84.0514 182.74 82.7689 182.733 82.3984 182.705Z" stroke="#DCD0CD" stroke-width="0.0755947"/>
<path d="M124.732 182.705C119.919 182.307 118.473 188.886 120.72 192.512C122.968 196.136 128.864 196.348 130.779 192.029C129.018 194.352 123.893 195.327 122.66 192.084C121.428 188.841 121.867 184.504 124.732 182.705Z" stroke="#4B3C4A" stroke-width="0.0755947"/>
<path d="M128.511 186.232C131.255 185.464 128.564 182.332 126.747 182.453C127.994 183.214 128.695 184.728 128.511 186.232Z" stroke="#4C3D49" stroke-width="0.0755947"/>
<path d="M137.079 182.705C132.422 182.493 130.915 188.888 133.067 192.512C135.222 196.133 141.448 196.357 143.126 192.028C141.35 194.54 136.25 195.246 135.058 192.033C133.866 188.823 134.206 184.529 137.079 182.705Z" stroke="#493948" stroke-width="0.0755947"/>
<path d="M140.858 186.232C143.942 185.667 140.982 182.336 139.094 182.452C140.342 183.213 141.042 184.725 140.858 186.232Z" stroke="#50404B" stroke-width="0.0755947"/>
<path d="M158.497 182.453C158.325 182.465 158.023 182.702 157.993 182.705C160.331 183.579 160.505 187.162 160.513 189.256C160.52 191.35 159.618 195.137 156.985 195.052C154.349 194.966 153.578 191.605 153.462 189.503C153.346 187.399 153.712 183.75 155.977 182.705C155.884 182.697 155.727 182.45 155.473 182.453C148.828 184.332 150.227 195.475 157.237 195.304C164.247 195.132 164.917 184.043 158.497 182.453Z" stroke="#493948" stroke-width="0.0755947"/>
<path d="M155.977 182.705C153.712 183.751 153.346 187.4 153.462 189.504C153.578 191.605 154.349 194.967 156.985 195.052C159.618 195.138 160.52 191.351 160.513 189.257C160.505 187.163 160.331 183.579 157.993 182.705C157.59 182.735 156.378 182.735 155.977 182.705Z" stroke="#DBD0CD" stroke-width="0.0755947"/>
<path d="M180.924 188.501C182.985 188.314 185.152 188.501 187.223 188.501C187.735 186.276 186.81 182.03 183.955 182.461C181.098 182.889 180.924 186.344 180.924 188.501Z" stroke="#DBD0CD" stroke-width="0.0755947"/>
<path d="M197.554 185.729C200.104 185.021 197.839 182.156 196.042 182.453C196.823 183.408 197.934 184.305 197.554 185.729Z" stroke="#51414D" stroke-width="0.0755947"/>
<path d="M56.9481 194.548C57.389 194.591 58.1223 195.012 58.46 195.052C59.5359 195.083 60.6321 195.08 61.2948 194.107C61.9575 193.132 62.1188 192.933 62.4085 191.693C62.6983 190.454 62.7487 190.101 62.7437 188.501C62.7386 186.901 62.5219 184.136 60.9974 183.192C59.4755 182.247 59.5611 182.574 57.767 183.272C55.9704 183.97 55.8016 186.858 55.9401 188.501C56.0787 190.144 56.308 190.663 55.9401 192.029C55.5723 193.394 56.943 193.805 56.9481 194.548Z" stroke="#DCD1CD" stroke-width="0.0755947"/>
<path d="M167.82 193.54C167.442 191.302 167.614 188.243 167.82 185.98C167.397 188.032 167.198 191.489 167.82 193.54Z" stroke="#93848C" stroke-width="0.0755947"/>
<path d="M80.1299 190.768C80.0417 189.465 80.0417 188.039 80.1299 186.736C79.9006 188.021 79.8956 189.468 80.1299 190.768Z" stroke="#8F8089" stroke-width="0.0755947"/>
<path d="M180.924 188.753C182.098 188.859 184.373 188.886 185.46 188.753C186.546 188.619 189.184 189.332 189.743 188.501C188.904 188.501 188.062 188.501 187.223 188.501C185.152 188.501 182.985 188.314 180.924 188.501C180.924 188.501 180.936 188.627 180.924 188.753Z" stroke="#908385" stroke-width="0.0755947"/>
<path d="M57.7039 195.052C57.9559 195.052 58.2079 195.044 58.4599 195.052C58.1222 195.012 57.389 194.591 56.948 194.548C56.9026 194.543 56.6532 194.576 56.444 194.548C56.1114 194.986 57.6309 195.052 57.7039 195.052Z" stroke="#817577" stroke-width="0.0755947"/>
<path d="M0 122.733V130.04C1.16416 161.591 13.8061 191.585 36.1091 214.379C58.4121 237.173 88.0401 249.916 119.188 252H132.291C163.441 250.339 192.943 237.612 215.382 215.148C237.824 192.683 250.637 163.012 252.234 131.804V119.961C250.37 88.4357 237.483 58.8378 214.374 36.366C191.265 13.8942 161.034 0.980122 129.015 0.269531H122.211C90.1845 1.49669 59.8862 14.4183 36.8524 37.3739C13.8187 60.327 1.20952 90.6808 0 122.733ZM84.4141 74.3524C83.3256 74.5464 82.2168 74.5766 81.1383 74.3524C77.8449 73.6695 75.2092 71.6814 73.347 68.7886C71.4824 65.8984 70.2275 63.2878 67.9723 60.5563C65.7145 57.8248 61.3426 56.9379 58.6489 59.6744C55.9552 62.4109 54.9246 65.7245 54.9322 69.5647C54.9397 73.4049 55.2598 77.9255 56.4416 81.4104C57.6233 84.8953 58.9715 87.3143 61.2947 90.1643C63.6155 93.0167 65.7674 94.4933 69.3506 95.7154C72.9338 96.935 77.2503 95.3879 80.4404 93.813C83.6305 92.2381 83.7842 87.836 87.6899 87.7074C91.5981 87.5815 90.3659 94.5437 89.2194 97.3004C88.0754 100.06 86.2914 103.272 83.8472 105.535C81.4029 107.798 77.9684 109.244 75.3428 110.638C78.6614 111.58 81.5314 112.994 84.4721 114.864C87.4127 116.733 89.3555 119.351 90.2047 122.738C91.0513 126.127 90.0182 130.696 86.4098 132.036C82.804 133.379 78.5807 132.376 75.9097 129.977C73.2387 127.579 72.1149 125.003 70.3611 122.171C68.6073 119.339 66.5057 116.063 62.7436 116.181C58.9815 116.3 56.6583 119.165 55.6075 122.652C54.5542 126.137 54.8944 131.51 55.4361 135.08C55.9779 138.653 57.2202 142.121 59.0269 145.096C60.8361 148.072 62.5597 150.103 65.4524 152.026C68.3427 153.951 72.9212 155.188 76.4061 153.782C79.891 152.376 81.9724 151.751 84.3562 148.125C86.7399 144.499 91.2076 146.263 90.2148 150.456C89.2219 154.652 89.1867 157.464 86.7021 160.551C84.2176 163.637 82.8443 165.016 79.5685 166.772C76.2927 168.531 72.3164 169.12 68.5392 169.35C64.762 169.579 60.1054 168.831 56.7767 167.505C53.4505 166.18 51.1575 164.476 48.4436 162.231C45.7323 159.984 44.2204 157.547 42.5069 154.561C40.796 151.572 39.7351 148.213 39.0598 144.653C38.3845 141.092 38.3517 135.607 39.0548 132.054C39.7603 128.501 40.9799 125.165 42.8169 122.209C44.6538 119.253 46.4681 117.109 49.1996 114.985C51.9311 112.86 55.0708 111.245 58.4599 110.638C57.011 108.657 53.5286 108.166 51.3465 106.412C49.1643 104.658 47.3576 103.134 45.5332 100.886C43.7064 98.6384 42.265 96.4664 41.1286 93.6996C39.9947 90.9303 39.1732 87.8108 38.8053 84.6837C38.4374 81.554 38.4399 77.1443 39.0548 74.0979C39.6696 71.0539 40.5767 68.1057 42.0231 65.475C43.4695 62.8443 44.6866 61.0477 46.8057 58.9184C48.9249 56.7892 50.7568 55.5822 53.4404 54.2139C56.1215 52.8432 59.3671 52.0091 62.4942 51.6765C65.6213 51.3413 69.9428 51.4472 72.9918 52.0091C76.0407 52.571 78.8 53.6041 81.4458 54.8943C84.0941 56.1844 86.0016 57.6888 88.0049 59.9264C90.0081 62.1665 90.8523 65.8102 90.4617 68.8088C90.0711 71.8073 87.264 74.1004 84.4141 74.3524ZM134.559 67.2969C134.559 66.2688 134.73 65.1147 134.811 64.2731C134.811 61.0603 135.146 58.8907 132.719 56.2852C130.29 53.6797 132.344 50.5199 135.819 51.422C139.293 52.3241 142.907 50.6307 145.898 51.422C148.889 52.2132 153.498 49.8672 155.41 52.2409C157.323 54.6146 153.102 56.3457 152.47 58.7496C151.835 61.151 151.474 65.2583 151.693 68.3048C151.913 71.3513 151.565 75.1386 151.693 78.3841C151.822 81.6296 151.567 85.3892 151.693 88.7154C151.819 92.0415 151.484 95.718 151.693 99.0467C151.903 102.375 151.905 105.291 151.693 108.622C151.482 111.953 151.797 115.614 151.693 118.953C151.59 122.292 151.751 125.727 151.693 129.033C151.635 132.339 151.749 136.151 151.693 139.364C151.638 142.577 151.782 146.462 151.693 149.443C151.605 152.424 151.444 156.302 153.142 158.326C154.841 160.349 157.277 163.539 153.961 164.31C150.854 165.033 146.974 164.572 143.63 164.562C140.286 164.552 136.159 165.033 133.047 164.31C130.28 163.665 131.689 160.666 133.236 158.955C134.783 157.247 134.811 154.012 134.811 151.711C134.727 150.854 134.559 149.715 134.559 148.687C134.559 145.782 135.806 140.536 132.233 139.17C128.66 137.804 124.661 139.671 120.7 138.86C116.738 138.048 115.118 142.778 115.66 145.915C116.202 149.053 114.975 154.722 116.245 157.174C117.517 159.626 121.818 163.348 117.676 164.31C114.566 165.033 110.676 164.512 107.345 164.562C104.013 164.612 100.123 164.9 97.0132 164.31C92.7925 163.511 97.172 159.704 98.0136 156.995C98.8578 154.289 98.4747 149.158 98.5251 145.663C98.5755 142.168 98.4974 137.328 98.5251 133.568C98.5529 129.809 98.4999 125.606 98.5251 121.725C98.5503 117.845 98.4873 113.556 98.5251 109.63C98.5629 105.704 98.447 101.715 98.5251 97.7867C98.6033 93.8583 98.3513 89.8619 98.5251 85.9436C98.699 82.0252 98.1522 77.7113 98.5251 73.8484C98.8981 69.9855 97.6835 65.722 98.5251 62.0052C99.3668 58.2885 94.6723 56.4062 95.2494 53.1858C95.8264 49.9655 102.126 51.5782 105.329 51.422C108.531 51.2657 113.39 51.1473 117.172 51.422C120.954 51.6966 118.535 56.1567 116.592 58.4019C114.647 60.6445 116.189 66.3242 115.66 69.3127C115.131 72.3012 116.242 77.288 120.196 76.8722C124.149 76.4564 128.012 77.5601 131.804 76.6379C135.599 75.7181 134.559 70.2299 134.559 67.2969ZM213.681 77.3762C213.85 79.1199 213.847 81.1912 213.681 82.9198C213.681 94.2968 205.111 103.991 194.278 106.858C183.443 109.726 170.189 106.137 163.726 96.0859C157.26 86.0368 157.713 72.5507 164.104 62.5722C170.491 52.5937 184.33 49.3582 194.838 52.8784C205.348 56.3961 213.681 66.2411 213.681 77.3762ZM213.681 138.356C213.91 140.261 213.908 142.516 213.681 144.403C213.462 155.392 204.993 165.114 194.473 168.284C183.952 171.454 170.058 167.719 163.726 157.822C157.391 147.924 157.476 134.402 164.104 124.56C170.733 114.717 183.796 110.915 194.787 113.909C205.781 116.9 213.457 127.14 213.681 138.356ZM99.2811 183.209C99.5784 182.14 99.7422 180.419 99.5331 179.177C99.3592 178.603 99.2786 178.106 98.7771 177.665C99.7851 176.972 100.977 176.907 102.053 176.405C102.219 179.381 101.829 182.796 102.053 185.729C102.277 188.662 101.284 191.983 102.809 194.296C103.126 193.81 103.565 193.311 104.069 193.036C103.978 195.541 99.4751 196.34 99.7851 193.288C97.0788 197.053 91.9257 195.08 90.8825 191.355C89.8418 187.629 91.5503 182.513 95.7533 182.705C92.2558 184.519 93.173 188.057 93.0647 191.441C92.9563 194.825 98.9081 195.969 99.4751 192.474C100.042 188.979 100.372 184.36 97.5172 182.453C98.2328 182.292 98.8578 182.765 99.2811 183.209ZM146.906 176.657C148.687 176.897 148.365 179.807 146.402 179.429C144.436 179.049 145.069 176.41 146.906 176.657ZM57.704 195.052C57.6309 195.052 56.1115 194.986 56.4441 194.548C55.4185 194.407 56.1417 196.806 55.9401 197.824C55.7385 198.842 56.2047 200.399 57.2 200.848C55.605 200.848 54.0074 200.848 52.4123 200.848C54.5063 198.847 53.6345 195.165 53.6723 192.28C53.7101 189.395 54.2795 185.436 52.6643 183.209C53.826 183.118 54.8213 182.463 55.9401 182.201C56.0812 182.836 55.6402 183.788 56.1921 184.217C58.9236 180.293 64.321 182.677 65.0064 186.994C65.6893 191.313 62.7084 196.743 57.704 195.052ZM70.0511 182.201C69.9982 182.947 69.9327 184.129 70.8071 183.209C69.779 184.857 69.9352 187.286 70.0511 189.256C70.167 191.227 69.3355 193.858 71.0591 195.052C69.5472 195.052 68.0353 195.052 66.5234 195.052C68.0529 193.729 67.4708 191.255 67.5313 189.256C67.5918 187.258 67.8513 184.612 66.5234 183.209C67.7732 183.126 68.8038 182.329 70.0511 182.201ZM74.3348 182.453C75.9752 182.362 78.0037 185.824 75.5947 186.233C75.6099 184.94 75.1916 183.453 74.0828 182.705C73.1656 182.581 72.1375 182.171 71.311 182.957C71.5403 181.858 73.6217 182.047 74.3348 182.453ZM85.1701 182.453C91.3562 184.408 90.3281 195.38 83.4062 195.304C76.4842 195.226 75.3906 184.217 81.8943 182.453C82.9375 182.171 84.1395 182.128 85.1701 182.453ZM108.1 192.28C108.849 195.304 112.671 195.498 113.624 192.512C114.579 189.529 114.138 185.6 112.888 183.209C114.093 183.262 115.015 182.387 116.164 182.201C116.111 184.393 116.237 187.676 116.164 189.76C116.091 191.844 115.826 195.548 118.18 193.288C117.976 195.755 113.783 196.09 113.896 193.288C112.304 195.843 107.876 196.279 106.261 193.364C104.646 190.448 106.674 185.774 104.573 183.209C105.777 183.262 106.699 182.387 107.848 182.201C108.846 182.821 107.813 185.729 108.1 186.989C108.388 188.248 107.929 190.887 108.1 192.28ZM147.914 182.201C148.042 184.207 147.742 187.364 147.914 189.256C148.085 191.149 146.991 194.949 149.426 193.792C147.871 196.879 144.988 194.611 145.394 191.776C145.8 188.941 145.588 185.676 144.638 183.209C145.792 183.1 146.76 182.362 147.914 182.201ZM158.497 182.453C164.917 184.043 164.247 195.133 157.237 195.304C150.227 195.475 148.828 184.333 155.473 182.453C156.481 182.168 157.509 182.208 158.497 182.453ZM168.072 183.965C169.045 183.69 169.463 182.037 170.862 182.219C172.263 182.402 173.538 182.158 174.687 183.146C175.836 184.136 176.025 185.23 175.884 186.737C175.743 188.243 176 190.048 175.884 191.524C175.768 193.001 175.836 194.321 177.144 195.052C175.632 195.052 174.12 195.052 172.608 195.052C174.611 192.134 173.286 188.883 173.419 185.421C173.553 181.959 167.4 182.234 167.82 185.981C167.614 188.243 167.442 191.302 167.82 193.54C168.022 194.203 168.135 194.732 168.828 195.052C167.316 195.052 165.804 195.052 164.293 195.052C165.82 193.815 165.323 191.161 165.3 189.256C165.278 187.351 165.903 184.663 164.293 183.461C165.187 182.743 166.51 182.692 167.568 182.201C168.173 182.576 167.442 183.617 168.072 183.965ZM189.743 188.5C189.183 189.332 186.545 188.619 185.459 188.752C184.373 188.886 182.098 188.858 180.923 188.752C180.389 194.377 186.333 195.581 189.743 192.028C188.082 195.81 182.4 196.496 179.978 193.225C177.557 189.954 177.892 185.217 181.616 182.894C185.338 180.568 190.471 184 189.743 188.5ZM195.79 182.453C192.502 181.815 192.462 185.668 194.593 186.926C196.725 188.183 198.509 188.16 199.759 190.579C201.009 192.996 197.834 195.359 195.79 195.304C193.744 195.246 189.448 194.135 192.011 192.028C191.59 195.092 197.925 196.398 198.252 193.23C198.58 190.063 194.724 189.763 192.704 187.807C190.683 185.852 192.018 180.86 195.79 182.453ZM124.731 182.705C121.866 184.504 121.428 188.841 122.66 192.084C123.892 195.327 129.018 194.351 130.779 192.028C128.864 196.347 122.967 196.135 120.72 192.512C118.472 188.886 119.918 182.307 124.731 182.705ZM128.511 186.233C128.695 184.728 127.994 183.214 126.747 182.453C128.564 182.332 131.255 185.464 128.511 186.233ZM137.078 182.705C134.206 184.529 133.866 188.823 135.058 192.033C136.249 195.246 141.35 194.54 143.126 192.028C141.448 196.357 135.221 196.133 133.067 192.512C130.915 188.888 132.422 182.493 137.078 182.705ZM140.858 186.233C141.042 184.726 140.342 183.214 139.094 182.453C140.982 182.337 143.942 185.668 140.858 186.233ZM197.554 185.729C197.935 184.305 196.823 183.408 196.042 182.453C197.839 182.156 200.104 185.021 197.554 185.729Z" fill="#DED3CF" stroke="black" stroke-width="0.251982"/>
<path d="M81.1381 74.3524C82.1838 74.4482 83.3681 74.423 84.4139 74.3524C87.2638 74.1005 90.0709 71.8074 90.4614 68.8088C90.852 65.8102 90.0079 62.1666 88.0046 59.9264C86.0013 57.6888 84.0938 56.1845 81.4455 54.8944C78.7997 53.6042 76.0405 52.5711 72.9915 52.0092C69.9425 51.4472 65.621 51.3414 62.4939 51.6765C59.3668 52.0092 56.1213 52.8432 53.4402 54.214C50.7566 55.5823 48.9246 56.7893 46.8055 58.9185C44.6863 61.0478 43.4692 62.8444 42.0228 65.4751C40.5765 68.1058 39.6693 71.054 39.0545 74.0979C38.4397 77.1444 38.4371 81.5541 38.805 84.6837C39.1729 87.8108 39.9944 90.9304 41.1283 93.6997C42.2648 96.4664 43.7061 98.6385 45.533 100.886C47.3573 103.134 49.164 104.658 51.3462 106.412C53.5284 108.166 57.0108 108.657 58.4597 110.638C55.0705 111.245 51.9308 112.86 49.1993 114.985C46.4678 117.109 44.6535 119.253 42.8166 122.209C40.9796 125.165 39.76 128.501 39.0545 132.054C38.3515 135.607 38.3842 141.093 39.0595 144.653C39.7348 148.214 40.7957 151.572 42.5067 154.561C44.2201 157.547 45.732 159.984 48.4434 162.231C51.1572 164.476 53.4503 166.18 56.7764 167.505C60.1051 168.831 64.7617 169.579 68.539 169.35C72.3162 169.121 76.2925 168.531 79.5682 166.772C82.844 165.016 84.2173 163.637 86.7019 160.551C89.1864 157.464 89.2217 154.652 90.2145 150.456C91.2073 146.263 86.7397 144.499 84.3559 148.125C81.9721 151.751 79.8908 152.376 76.4059 153.782C72.9209 155.188 68.3424 153.951 65.4522 152.026C62.5594 150.103 60.8359 148.072 59.0266 145.097C57.2199 142.121 55.9776 138.653 55.4359 135.08C54.8941 131.51 54.5539 126.137 55.6072 122.652C56.658 119.165 58.9813 116.3 62.7434 116.182C66.5055 116.063 68.607 119.339 70.3608 122.171C72.1146 125.003 73.2384 127.579 75.9094 129.978C78.5805 132.376 82.8037 133.379 86.4096 132.036C90.0179 130.696 91.0511 126.127 90.2044 122.738C89.3552 119.351 87.4125 116.733 84.4718 114.864C81.5312 112.994 78.6611 111.58 75.3425 110.638C77.9681 109.244 81.4027 107.798 83.8469 105.535C86.2911 103.272 88.0752 100.06 89.2192 97.3005C90.3657 94.5438 91.5979 87.5815 87.6896 87.7075C83.7839 87.836 83.6302 92.2382 80.4401 93.813C77.25 95.3879 72.9335 96.9351 69.3503 95.7155C65.7672 94.4934 63.6152 93.0168 61.2945 90.1643C58.9712 87.3144 57.6231 84.8954 56.4413 81.4105C55.2595 77.9256 54.9395 73.405 54.9319 69.5648C54.9244 65.7246 55.955 62.411 58.6487 59.6745C61.3423 56.9379 65.7142 57.8249 67.972 60.5564C70.2272 63.2879 71.4821 65.8984 73.3468 68.7887C75.2089 71.6814 77.8447 73.6696 81.1381 74.3524Z" fill="#293148" stroke="black" stroke-width="0.251982"/>
<path d="M97.0134 164.31C100.395 164.569 103.953 164.353 107.345 164.31C110.736 164.267 114.309 164.685 117.676 164.31C121.819 163.347 117.517 159.626 116.245 157.174C114.975 154.722 116.202 149.052 115.66 145.915C115.118 142.778 116.739 138.048 120.7 138.86C124.661 139.671 128.66 137.804 132.233 139.17C135.806 140.535 134.559 145.782 134.559 148.687C134.642 149.544 134.811 150.683 134.811 151.711C134.811 154.011 134.783 157.247 133.236 158.955C131.689 160.666 130.28 163.665 133.047 164.31C136.426 164.688 139.964 164.32 143.378 164.31C146.793 164.3 150.56 164.69 153.961 164.31C157.278 163.539 154.841 160.349 153.142 158.325C151.444 156.302 151.605 152.424 151.694 149.443C151.782 146.462 151.638 142.576 151.694 139.364C151.749 136.151 151.636 132.338 151.694 129.032C151.752 125.726 151.59 122.292 151.694 118.953C151.797 115.614 151.482 111.953 151.694 108.622C151.905 105.291 151.903 102.375 151.694 99.0464C151.484 95.7177 151.82 92.0413 151.694 88.7151C151.568 85.389 151.822 81.6294 151.694 78.3838C151.565 75.1383 151.913 71.351 151.694 68.3045C151.474 65.2581 151.835 61.1508 152.47 58.7494C153.102 56.3455 157.323 54.6143 155.41 52.2407C153.498 49.867 148.889 52.2129 145.898 51.4217C142.907 50.6305 139.294 52.3238 135.819 51.4217C132.344 50.5196 130.29 53.6795 132.719 56.285C135.146 58.8905 134.811 61.0601 134.811 64.2728C134.811 65.3009 134.639 66.455 134.559 67.2966C134.559 70.2297 135.599 75.7179 131.805 76.6376C128.012 77.5599 124.149 76.4562 120.196 76.872C116.242 77.2877 115.131 72.301 115.66 69.3125C116.189 66.324 114.647 60.6443 116.592 58.4016C118.535 56.1565 120.954 51.6964 117.172 51.4217C113.39 51.1471 108.532 51.2655 105.329 51.4217C102.126 51.578 95.8265 49.9653 95.2495 53.1856C94.6725 56.4059 99.3669 58.2882 98.5253 62.005C97.6837 65.7217 98.8982 69.9853 98.5253 73.8482C98.1523 77.7111 98.6991 82.025 98.5253 85.9433C98.3514 89.8616 98.6034 93.8581 98.5253 97.7865C98.4472 101.715 98.5631 105.704 98.5253 109.63C98.4875 113.556 98.5505 117.844 98.5253 121.725C98.5001 125.605 98.553 129.808 98.5253 133.568C98.4976 137.328 98.5757 142.168 98.5253 145.663C98.4749 149.158 98.8579 154.289 98.0138 156.995C97.1721 159.704 92.7927 163.511 97.0134 164.31ZM134.559 94.0068C134.634 94.7829 134.811 95.8336 134.811 96.7786C134.811 104.169 134.811 111.562 134.811 118.953C134.811 119.981 134.639 121.135 134.559 121.977C134.559 124.726 135.544 131.693 131.225 131.746C126.906 131.799 122.607 132.628 118.513 131.472C114.418 130.312 115.784 124.527 115.66 120.969C115.537 117.411 115.642 111.623 115.66 107.866C115.678 104.109 115.489 98.3106 115.66 94.7627C115.831 91.2148 114.335 85.3159 118.452 84.1996C122.567 83.0808 126.838 83.9854 131.2 84.0106C135.562 84.0358 134.559 91.172 134.559 94.0068Z" fill="#293148" stroke="black" stroke-width="0.251982"/>
<path d="M213.681 82.9197C213.681 81.0727 213.681 79.2231 213.681 77.3761C213.681 66.241 205.348 56.3961 194.838 52.8784C184.331 49.3582 170.492 52.5936 164.104 62.5721C157.714 72.5506 157.26 86.0367 163.726 96.0858C170.189 106.137 183.444 109.726 194.279 106.858C205.112 103.99 213.681 94.2967 213.681 82.9197ZM192.263 101.314C191.436 101.498 190.812 101.516 189.995 101.314C185.402 100.175 183.141 95.7834 180.861 91.8021C178.58 87.8233 176.945 82.9197 175.887 78.1295C174.828 73.3419 173.329 66.9037 175.111 61.7356C176.89 56.5674 183.741 57.4619 186.447 61.5214C189.151 65.5833 191.384 68.9423 193.1 73.5157C194.816 78.0892 196.38 83.3254 197.051 88.2114C197.721 93.0973 198.23 99.9915 192.263 101.314Z" fill="#913637" stroke="black" stroke-width="0.251982"/>
<path d="M189.995 101.314C190.688 101.4 191.567 101.385 192.262 101.314C198.229 99.9912 197.72 93.0969 197.05 88.211C196.38 83.3251 194.815 78.0889 193.099 73.5154C191.383 68.9419 189.15 65.583 186.447 61.521C183.74 57.4616 176.889 56.5671 175.11 61.7352C173.328 66.9034 174.828 73.3415 175.886 78.1292C176.944 82.9194 178.58 87.823 180.86 91.8018C183.141 95.7831 185.401 100.175 189.995 101.314Z" fill="#DFD2CE" stroke="black" stroke-width="0.251982"/>
<path d="M134.559 67.2972C134.639 66.4556 134.811 65.3015 134.811 64.2734C134.73 65.1151 134.559 66.2691 134.559 67.2972Z" fill="#8B8890" stroke="black" stroke-width="0.251982"/>
<path d="M84.414 74.3525C83.3682 74.4231 82.1839 74.4483 81.1382 74.3525C82.2167 74.5768 83.3254 74.5466 84.414 74.3525Z" fill="#8C8A93" stroke="black" stroke-width="0.251982"/>
<path d="M213.681 82.9201C213.847 81.1915 213.849 79.1202 213.681 77.3765C213.681 79.2235 213.681 81.073 213.681 82.9201Z" fill="#B98686" stroke="black" stroke-width="0.251982"/>
<path d="M134.558 121.977C134.558 120.949 134.73 119.795 134.81 118.953C134.81 111.563 134.81 104.169 134.81 96.7787C134.735 96.0026 134.558 94.9519 134.558 94.0069C134.558 91.1721 135.561 84.036 131.2 84.0108C126.838 83.9856 122.567 83.081 118.452 84.1998C114.334 85.3161 115.831 91.215 115.66 94.7629C115.488 98.3108 115.677 104.109 115.66 107.866C115.642 111.623 115.536 117.411 115.66 120.969C115.783 124.527 114.418 130.313 118.512 131.472C122.607 132.628 126.906 131.799 131.225 131.746C135.544 131.693 134.558 124.726 134.558 121.977Z" fill="#DED3CF" stroke="black" stroke-width="0.251982"/>
<path d="M134.811 96.7791C134.811 95.8342 134.634 94.7834 134.559 94.0073C134.559 94.9523 134.735 96.003 134.811 96.7791Z" fill="#8D8A92" stroke="black" stroke-width="0.251982"/>
<path d="M192.262 101.315C191.567 101.385 190.688 101.401 189.995 101.315C190.811 101.517 191.436 101.499 192.262 101.315Z" fill="#B27A7A" stroke="black" stroke-width="0.251982"/>
<path d="M213.681 144.404C213.721 142.393 213.721 140.367 213.681 138.356C213.456 127.14 205.781 116.9 194.787 113.909C183.795 110.915 170.733 114.718 164.103 124.56C157.476 134.403 157.39 147.924 163.725 157.822C170.057 167.72 183.952 171.454 194.472 168.284C204.992 165.114 213.461 155.393 213.681 144.404ZM198.31 125.757C198.617 127.652 198.536 129.932 198.31 131.805C198.227 135.902 197.035 140.609 195.792 144.406C194.548 148.201 193.25 151.621 191.022 155.007C188.792 158.394 187.673 161.256 183.188 162.544C178.703 163.832 175.719 159.692 175.631 155.239C175.533 154.428 175.556 153.508 175.631 152.719C175.631 146.861 177.44 141.166 179.406 135.831C181.369 130.494 183.155 127.256 186.781 122.544C190.405 117.832 197.937 118.898 198.31 125.757Z" fill="#913637" stroke="black" stroke-width="0.251982"/>
<path d="M134.559 121.976C134.639 121.135 134.811 119.981 134.811 118.953C134.73 119.794 134.559 120.948 134.559 121.976Z" fill="#8D8A93" stroke="black" stroke-width="0.251982"/>
<path d="M175.632 152.719C175.632 153.558 175.614 154.399 175.632 155.238C175.72 159.691 178.704 163.831 183.189 162.543C187.674 161.256 188.793 158.393 191.023 155.007C193.25 151.62 194.548 148.201 195.793 144.406C197.035 140.608 198.227 135.901 198.31 131.804C198.351 129.806 198.419 127.752 198.31 125.756C197.937 118.897 190.406 117.832 186.782 122.544C183.156 127.256 181.369 130.494 179.407 135.831C177.441 141.165 175.632 146.86 175.632 152.719Z" fill="#DFD2CE" stroke="black" stroke-width="0.251982"/>
<path d="M198.31 131.805C198.537 129.933 198.617 127.652 198.31 125.757C198.418 127.753 198.35 129.807 198.31 131.805Z" fill="#BD8689" stroke="black" stroke-width="0.251982"/>
<path d="M213.681 144.404C213.907 142.516 213.91 140.261 213.681 138.356C213.721 140.367 213.721 142.393 213.681 144.404Z" fill="#B98987" stroke="black" stroke-width="0.251982"/>
<path d="M134.811 151.711C134.811 150.683 134.642 149.544 134.559 148.687C134.559 149.715 134.727 150.854 134.811 151.711Z" fill="#8C8992" stroke="black" stroke-width="0.251982"/>
<path d="M175.632 155.239C175.614 154.399 175.632 153.558 175.632 152.719C175.556 153.507 175.534 154.427 175.632 155.239Z" fill="#AF807D" stroke="black" stroke-width="0.251982"/>
<path d="M117.676 164.311C114.309 164.686 110.736 164.268 107.344 164.311C103.953 164.354 100.395 164.57 97.0132 164.311C100.123 164.9 104.013 164.613 107.344 164.563C110.676 164.512 114.566 165.034 117.676 164.311Z" fill="#6F707A" stroke="black" stroke-width="0.251982"/>
<path d="M153.961 164.31C150.56 164.69 146.793 164.3 143.378 164.31C139.964 164.32 136.426 164.688 133.047 164.31C136.159 165.033 140.286 164.552 143.63 164.562C146.974 164.572 150.854 165.033 153.961 164.31Z" fill="#6F707A" stroke="black" stroke-width="0.251982"/>
<path d="M99.5332 179.177C99.8104 180.086 100.229 183.327 99.2812 183.208C98.8579 182.765 98.233 182.291 97.5174 182.452C100.372 184.36 100.042 188.979 99.4753 192.474C98.9083 195.969 92.9565 194.825 93.0648 191.441C93.1732 188.056 92.256 184.519 95.7535 182.704C91.5504 182.513 89.842 187.628 90.8827 191.355C91.9259 195.079 97.0789 197.052 99.7852 193.288C99.4753 196.339 103.978 195.54 104.069 193.036C103.565 193.31 103.126 193.809 102.809 194.296C101.284 191.982 102.277 188.661 102.053 185.728C101.829 182.795 102.219 179.381 102.053 176.405C100.977 176.906 99.7852 176.972 98.7773 177.665C99.2787 178.106 99.3593 178.602 99.5332 179.177Z" fill="#493848" stroke="black" stroke-width="0.251982"/>
<path d="M146.905 176.657C145.069 176.41 144.436 179.048 146.401 179.429C148.364 179.807 148.687 176.896 146.905 176.657Z" fill="#4B3B4A" stroke="black" stroke-width="0.251982"/>
<path d="M99.2808 183.208C100.228 183.327 99.8099 180.086 99.5327 179.177C99.7419 180.419 99.5781 182.14 99.2808 183.208Z" fill="#7C6E77" stroke="black" stroke-width="0.251982"/>
<path d="M56.4443 194.548C56.6535 194.576 56.9029 194.543 56.9483 194.548C56.9432 193.804 55.5725 193.394 55.9404 192.028C56.3082 190.662 56.0789 190.143 55.9404 188.5C55.8018 186.857 55.9706 183.97 57.7672 183.272C59.5613 182.574 59.4757 182.246 60.9976 183.191C62.5221 184.136 62.7388 186.9 62.7439 188.5C62.7489 190.1 62.6985 190.453 62.4087 191.693C62.119 192.933 61.9577 193.132 61.295 194.107C60.6323 195.08 59.5361 195.082 58.4602 195.052C58.2082 195.044 57.9562 195.052 57.7042 195.052C62.7086 196.743 65.6896 191.312 65.0067 186.993C64.3213 182.677 58.9238 180.293 56.1923 184.217C55.6405 183.788 56.0815 182.836 55.9404 182.201C54.8215 182.463 53.8262 183.118 52.6646 183.209C54.2798 185.436 53.7103 189.395 53.6725 192.28C53.6347 195.165 54.5066 198.847 52.4126 200.847C54.0076 200.847 55.6052 200.847 57.2003 200.847C56.2049 200.399 55.7388 198.842 55.9404 197.824C56.1419 196.806 55.4187 194.407 56.4443 194.548Z" fill="#473646" stroke="black" stroke-width="0.251982"/>
<path d="M70.0512 182.201C68.8039 182.329 67.7733 183.125 66.5234 183.209C67.8514 184.612 67.5918 187.258 67.5314 189.256C67.4709 191.254 68.053 193.729 66.5234 195.052C68.0353 195.052 69.5472 195.052 71.0591 195.052C69.3356 193.857 70.1671 191.227 70.0512 189.256C69.9353 187.286 69.7791 184.857 70.8071 183.209C69.9328 184.128 69.9983 182.947 70.0512 182.201Z" fill="#4B3B4A" stroke="black" stroke-width="0.251982"/>
<path d="M74.0828 182.705C74.1131 182.71 74.2492 182.458 74.3348 182.453C73.6217 182.048 71.5403 181.859 71.311 182.957C72.1375 182.171 73.1656 182.582 74.0828 182.705Z" fill="#716568" stroke="black" stroke-width="0.251982"/>
<path d="M81.894 182.453C82.1007 182.463 82.3401 182.7 82.398 182.705C82.7684 182.733 84.051 182.74 84.4139 182.705C84.56 182.69 84.8599 182.443 85.1698 182.453C84.1392 182.128 82.9373 182.171 81.894 182.453Z" fill="#74686B" stroke="black" stroke-width="0.251982"/>
<path d="M108.101 192.28C107.337 189.193 108.148 185.489 107.849 182.201C106.699 182.387 105.777 183.262 104.573 183.209C106.674 185.774 104.646 190.448 106.261 193.364C107.876 196.279 112.304 195.843 113.896 193.288C113.783 196.09 117.976 195.755 118.18 193.288C115.826 195.548 116.091 191.844 116.164 189.76C116.237 187.676 116.111 184.393 116.164 182.201C115.015 182.387 114.093 183.262 112.888 183.209C114.138 185.6 114.579 189.528 113.624 192.512C112.671 195.498 108.849 195.304 108.101 192.28Z" fill="#473747" stroke="black" stroke-width="0.251982"/>
<path d="M108.1 192.28C107.929 190.887 108.388 188.248 108.1 186.988C107.813 185.728 108.846 182.821 107.848 182.201C108.148 185.489 107.337 189.193 108.1 192.28Z" fill="#84757C" stroke="black" stroke-width="0.251982"/>
<path d="M147.913 182.201C146.759 182.362 145.792 183.1 144.638 183.209C145.588 185.676 145.799 188.941 145.394 191.776C144.988 194.611 147.871 196.879 149.425 193.792C146.991 194.948 148.085 191.149 147.913 189.256C147.742 187.364 148.042 184.206 147.913 182.201Z" fill="#493949" stroke="black" stroke-width="0.251982"/>
<path d="M155.473 182.453C155.728 182.451 155.884 182.698 155.977 182.705C156.378 182.735 157.59 182.735 157.993 182.705C158.023 182.703 158.326 182.466 158.497 182.453C157.509 182.209 156.481 182.168 155.473 182.453Z" fill="#706367" stroke="black" stroke-width="0.251982"/>
<path d="M167.82 193.54C167.198 191.489 167.397 188.032 167.82 185.98C167.399 182.233 173.553 181.959 173.419 185.421C173.286 188.883 174.611 192.134 172.608 195.052C174.12 195.052 175.632 195.052 177.144 195.052C175.836 194.321 175.768 193.001 175.884 191.524C176 190.047 175.743 188.243 175.884 186.736C176.025 185.23 175.836 184.136 174.687 183.146C173.538 182.158 172.263 182.402 170.862 182.218C169.463 182.037 169.045 183.69 168.072 183.965C167.152 184.224 167.747 182.999 167.568 182.201C166.51 182.692 165.187 182.742 164.292 183.461C165.903 184.663 165.278 187.351 165.3 189.256C165.323 191.161 165.819 193.815 164.292 195.052C165.804 195.052 167.316 195.052 168.828 195.052C168.135 194.732 168.022 194.203 167.82 193.54Z" fill="#473746" stroke="black" stroke-width="0.251982"/>
<path d="M168.072 183.965C167.442 183.617 168.173 182.576 167.568 182.201C167.747 182.999 167.152 184.224 168.072 183.965Z" fill="#90818A" stroke="black" stroke-width="0.251982"/>
<path d="M180.923 188.752C180.936 188.626 180.923 188.5 180.923 188.5C180.923 186.343 181.097 182.888 183.954 182.46C186.809 182.029 187.734 186.275 187.223 188.5C188.062 188.5 188.903 188.5 189.742 188.5C190.471 184 185.338 180.568 181.616 182.894C177.892 185.217 177.557 189.954 179.978 193.225C182.4 196.496 188.082 195.81 189.742 192.028C186.333 195.581 180.389 194.376 180.923 188.752Z" fill="#4B3B4A" stroke="black" stroke-width="0.251982"/>
<path d="M195.79 182.453C192.018 180.86 190.683 185.852 192.704 187.807C194.725 189.763 198.58 190.063 198.252 193.23C197.925 196.397 191.59 195.092 192.011 192.028C189.448 194.135 193.744 195.246 195.79 195.304C197.834 195.359 201.009 192.996 199.759 190.579C198.509 188.16 196.725 188.183 194.594 186.925C192.462 185.668 192.502 181.815 195.79 182.453Z" fill="#4B3B49" stroke="black" stroke-width="0.251982"/>
<path d="M74.0825 182.705C75.1912 183.453 75.6095 184.94 75.5944 186.233C78.0034 185.824 75.9749 182.362 74.3345 182.453C74.2488 182.458 74.1128 182.71 74.0825 182.705Z" fill="#4C3C48" stroke="black" stroke-width="0.251982"/>
<path d="M85.17 182.452C84.8601 182.442 84.5602 182.689 84.4141 182.704C88.3929 184.543 87.4454 192.871 84.477 194.862C81.5112 196.855 80.2362 192.304 80.1303 190.767C79.896 189.467 79.901 188.021 80.1303 186.736C80.2311 185.259 80.8737 183.273 82.3982 182.704C82.3402 182.699 82.1009 182.462 81.8942 182.452C75.3906 184.216 76.4842 195.225 83.4061 195.303C90.3281 195.379 91.3562 184.407 85.17 182.452Z" fill="#483847" stroke="black" stroke-width="0.251982"/>
<path d="M82.3984 182.705C80.8739 183.275 80.2314 185.26 80.1306 186.737C80.0424 188.04 80.0424 189.466 80.1306 190.769C80.2364 192.306 81.5115 196.856 84.4773 194.863C87.4457 192.873 88.3931 184.545 84.4143 182.705C84.0514 182.74 82.7689 182.733 82.3984 182.705Z" fill="#DCD0CD" stroke="black" stroke-width="0.251982"/>
<path d="M124.732 182.705C119.919 182.307 118.473 188.886 120.72 192.512C122.968 196.136 128.864 196.348 130.779 192.029C129.018 194.352 123.893 195.327 122.66 192.084C121.428 188.841 121.867 184.504 124.732 182.705Z" fill="#4B3C4A" stroke="black" stroke-width="0.251982"/>
<path d="M128.511 186.232C131.255 185.464 128.564 182.332 126.747 182.453C127.994 183.214 128.695 184.728 128.511 186.232Z" fill="#4C3D49" stroke="black" stroke-width="0.251982"/>
<path d="M137.079 182.705C132.422 182.493 130.915 188.888 133.067 192.512C135.222 196.133 141.448 196.357 143.126 192.028C141.35 194.54 136.25 195.246 135.058 192.033C133.866 188.823 134.206 184.529 137.079 182.705Z" fill="#493948" stroke="black" stroke-width="0.251982"/>
<path d="M140.858 186.232C143.942 185.667 140.982 182.336 139.094 182.452C140.342 183.213 141.042 184.725 140.858 186.232Z" fill="#50404B" stroke="black" stroke-width="0.251982"/>
<path d="M158.497 182.453C158.325 182.465 158.023 182.702 157.993 182.705C160.331 183.579 160.505 187.162 160.513 189.256C160.52 191.35 159.618 195.137 156.985 195.052C154.349 194.966 153.578 191.605 153.462 189.503C153.346 187.399 153.712 183.75 155.977 182.705C155.884 182.697 155.727 182.45 155.473 182.453C148.828 184.332 150.227 195.475 157.237 195.304C164.247 195.132 164.917 184.043 158.497 182.453Z" fill="#493948" stroke="black" stroke-width="0.251982"/>
<path d="M155.977 182.705C153.712 183.751 153.346 187.4 153.462 189.504C153.578 191.605 154.349 194.967 156.985 195.052C159.618 195.138 160.52 191.351 160.513 189.257C160.505 187.163 160.331 183.579 157.993 182.705C157.59 182.735 156.378 182.735 155.977 182.705Z" fill="#DBD0CD" stroke="black" stroke-width="0.251982"/>
<path d="M180.924 188.501C182.985 188.314 185.152 188.501 187.223 188.501C187.735 186.276 186.81 182.03 183.955 182.461C181.098 182.889 180.924 186.344 180.924 188.501Z" fill="#DBD0CD" stroke="black" stroke-width="0.251982"/>
<path d="M197.554 185.729C200.104 185.021 197.839 182.156 196.042 182.453C196.823 183.408 197.934 184.305 197.554 185.729Z" fill="#51414D" stroke="black" stroke-width="0.251982"/>
<path d="M56.9481 194.548C57.389 194.591 58.1223 195.012 58.46 195.052C59.5359 195.083 60.6321 195.08 61.2948 194.107C61.9575 193.132 62.1188 192.933 62.4085 191.693C62.6983 190.454 62.7487 190.101 62.7437 188.501C62.7386 186.901 62.5219 184.136 60.9974 183.192C59.4755 182.247 59.5611 182.574 57.767 183.272C55.9704 183.97 55.8016 186.858 55.9401 188.501C56.0787 190.144 56.308 190.663 55.9401 192.029C55.5723 193.394 56.943 193.805 56.9481 194.548Z" fill="#DCD1CD" stroke="black" stroke-width="0.251982"/>
<path d="M167.82 193.54C167.442 191.302 167.614 188.243 167.82 185.98C167.397 188.032 167.198 191.489 167.82 193.54Z" fill="#93848C" stroke="black" stroke-width="0.251982"/>
<path d="M80.1299 190.768C80.0417 189.465 80.0417 188.039 80.1299 186.736C79.9006 188.021 79.8956 189.468 80.1299 190.768Z" fill="#8F8089" stroke="black" stroke-width="0.251982"/>
<path d="M180.924 188.753C182.098 188.859 184.373 188.886 185.46 188.753C186.546 188.619 189.184 189.332 189.743 188.501C188.904 188.501 188.062 188.501 187.223 188.501C185.152 188.501 182.985 188.314 180.924 188.501C180.924 188.501 180.936 188.627 180.924 188.753Z" fill="#908385" stroke="black" stroke-width="0.251982"/>
<path d="M57.7039 195.052C57.9559 195.052 58.2079 195.044 58.4599 195.052C58.1222 195.012 57.389 194.591 56.948 194.548C56.9026 194.543 56.6532 194.576 56.444 194.548C56.1114 194.986 57.6309 195.052 57.7039 195.052Z" fill="#817577" stroke="black" stroke-width="0.251982"/>
</g>
<defs>
<clipPath id="clip0_266_21748">
<rect width="252.234" height="251.73" fill="white" transform="translate(0 0.269531)"/>
</clipPath>
</defs>
</svg>
