<svg width="198" height="209" viewBox="0 0 198 209" fill="none" xmlns="http://www.w3.org/2000/svg">
<path d="M99.9041 82.5C103.399 82.5 106.233 81.994 106.233 81.3699V84.7603C106.233 85.3845 103.399 85.8904 99.9041 85.8904C96.4089 85.8904 93.5753 85.3845 93.5753 84.7603V81.3699C93.5753 81.994 96.4089 82.5 99.9041 82.5Z" fill="#B0BEC5"/>
<path d="M0 122.959L34.3562 103.068L47.9178 110.301V116.178L32.0959 124.315L0 122.959Z" fill="#B0BEC5"/>
<path d="M12.6575 150.082L34.8082 128.384L90.411 152.342L66 174.493L12.6575 150.082Z" fill="#B0BEC5"/>
<path d="M164.548 128.384L108.493 151.89L133.356 174.493L186.247 150.534L164.548 128.384Z" fill="#B0BEC5"/>
<path d="M198 122.507L164.548 103.068L149.63 110.301L150.534 116.178L167.712 124.767L198 122.507Z" fill="#B0BEC5"/>
<path d="M36.6164 166.808V179.918L98.0959 208.397V156.411L94.4795 155.055L66 179.918L36.6164 166.808Z" fill="#B0BEC5"/>
<path d="M162.288 179.918L100.808 207.945V156.863L104.425 155.507L132.452 179.918L162.288 167.712V179.918Z" fill="#B0BEC5"/>
<path d="M155.507 49.274H138.329V67.3562H155.507V49.274Z" fill="#B0BEC5"/>
<path d="M101.26 90.863V149.63L104.877 148.274V138.781L118.89 142.849L119.795 140.137L104.877 135.616V100.808L101.26 90.863Z" fill="#B0BEC5"/>
<path d="M97.1918 91.3151V150.082L93.4871 148.726V139.233L79.1316 143.301L78.2055 140.589L93.4871 136.068V101.26L97.1918 91.3151Z" fill="#B0BEC5"/>
<path d="M101.26 90.863V149.63L104.877 148.274V138.781L118.89 142.849L119.795 140.137L104.877 135.616V100.808L101.26 90.863Z" fill="#B0BEC5"/>
<path d="M105.329 86.3425L101.712 87.6986L119.795 137.877L121.151 138.781L122.507 137.877L122.959 136.068L105.329 86.3425Z" fill="#B0BEC5"/>
<path d="M93.6523 85.8904L97.1918 87.2466L79.4943 137.425L78.167 138.329L76.8397 137.425L76.3973 135.616L93.6523 85.8904Z" fill="#B0BEC5"/>
<path d="M65.5479 87.6986H74.589V93.1233H65.5479V87.6986Z" fill="#B0BEC5"/>
<path fill-rule="evenodd" clip-rule="evenodd" d="M66.4521 63.2253C67.0378 61.5462 67.3562 59.7418 67.3562 57.863C67.3562 55.9842 67.0378 54.1798 66.4521 52.5007V44.3014H69.1644V70.5205H66.4521V63.2253ZM35.7123 63.2253V52.5007C37.9287 46.1474 43.9731 41.589 51.0822 41.589C58.1913 41.589 64.2357 46.1474 66.4521 52.5007V63.2253C64.2357 69.5786 58.1913 74.137 51.0822 74.137C43.9731 74.137 37.9287 69.5786 35.7123 63.2253ZM35.7123 52.5007V44.3014H33V70.5205H35.7123V63.2253C35.1266 61.5462 34.8082 59.7418 34.8082 57.863C34.8082 55.9842 35.1266 54.1798 35.7123 52.5007ZM53.9729 64.4951C55.6434 63.766 56.9852 62.4242 57.7142 60.7537C58.627 61.7497 59.9096 62.3836 61.0274 62.3836C63.0248 62.3836 63.7397 60.3596 63.7397 57.863C63.7397 55.3664 63.0248 53.3425 61.0274 53.3425C59.9096 53.3425 58.627 53.9763 57.7142 54.9723C56.9852 53.3018 55.6434 51.96 53.9729 51.2309C54.9688 50.3181 55.6027 49.0356 55.6027 47.9178C55.6027 45.9205 53.5789 45.2055 51.0822 45.2055C48.5855 45.2055 46.5616 45.9205 46.5616 47.9178C46.5616 49.0356 47.1956 50.3181 48.1915 51.2309C46.521 51.96 45.1792 53.3018 44.4501 54.9723C43.5374 53.9763 42.2548 53.3425 41.137 53.3425C39.1396 53.3425 38.4247 55.3664 38.4247 57.863C38.4247 60.3596 39.1396 62.3836 41.137 62.3836C42.2548 62.3836 43.5374 61.7497 44.4501 60.7537C45.1792 62.4242 46.521 63.766 48.1915 64.4951C47.1956 65.4079 46.5616 66.6904 46.5616 67.8082C46.5616 69.8055 48.5855 70.5205 51.0822 70.5205C53.5789 70.5205 55.6027 69.8055 55.6027 67.8082C55.6027 66.6904 54.9688 65.4079 53.9729 64.4951ZM56.5068 57.863C56.5068 60.859 54.0782 63.2877 51.0822 63.2877C48.0862 63.2877 45.6575 60.859 45.6575 57.863C45.6575 54.8671 48.0862 52.4384 51.0822 52.4384C54.0782 52.4384 56.5068 54.8671 56.5068 57.863ZM53.7945 57.863C53.7945 59.361 52.5801 60.5753 51.0822 60.5753C49.5843 60.5753 48.3699 59.361 48.3699 57.863C48.3699 56.365 49.5843 55.1507 51.0822 55.1507C52.5801 55.1507 53.7945 56.365 53.7945 57.863ZM51.0822 58.7671C51.5815 58.7671 51.9863 58.3623 51.9863 57.863C51.9863 57.3637 51.5815 56.9589 51.0822 56.9589C50.5829 56.9589 50.1781 57.3637 50.1781 57.863C50.1781 58.3623 50.5829 58.7671 51.0822 58.7671Z" fill="#B0BEC5"/>
<path d="M47.4658 75.0411H57.411V78.6575H47.4658V75.0411Z" fill="#B0BEC5"/>
<path d="M51.9863 79.5616H55.6027V131.096H51.9863V79.5616Z" fill="#B0BEC5"/>
<path d="M78.2055 37.0685H80.9178V44.3014H78.2055V37.0685Z" fill="#B0BEC5"/>
<path d="M118.89 37.0685H121.603V44.3014H118.89V37.0685Z" fill="#B0BEC5"/>
<path d="M127.027 53.3425H130.644V63.2877H127.027V53.3425Z" fill="#B0BEC5"/>
<path d="M131.548 48.8219H135.164V67.8082H131.548V48.8219Z" fill="#B0BEC5"/>
<path d="M165.904 44.7534L160.932 48.3699V68.7123L165.904 71.8767V44.7534Z" fill="#B0BEC5"/>
<path d="M99.9041 21.6986C105.896 21.6986 110.753 25.3417 110.753 29.8356V58.7671C110.753 63.2611 105.896 66.9041 99.9041 66.9041C93.9122 66.9041 89.0548 63.2611 89.0548 58.7671V29.8356C89.0548 25.3417 93.9122 21.6986 99.9041 21.6986Z" fill="#B0BEC5"/>
<path fill-rule="evenodd" clip-rule="evenodd" d="M84.5342 10.8493C84.5342 4.85741 89.3916 0 95.3836 0H104.425C110.417 0 115.274 4.85741 115.274 10.8493V32.5479C115.274 32.8514 115.265 33.1529 115.248 33.4521H113.436C113.456 33.1532 113.466 32.8518 113.466 32.5479C113.466 25.0581 107.394 18.9863 99.9041 18.9863C92.4142 18.9863 86.3425 25.0581 86.3425 32.5479C86.3425 32.8518 86.3525 33.1532 86.3721 33.4521H84.5604C84.543 33.1529 84.5342 32.8514 84.5342 32.5479V10.8493ZM87.2466 23.8265C88.0161 22.7118 88.9291 21.7037 89.9589 20.8289V11.7534C89.9589 8.25814 92.7924 5.42466 96.2877 5.42466H103.521C107.016 5.42466 109.849 8.25814 109.849 11.7534V20.8289C110.879 21.7037 111.792 22.7118 112.562 23.8265V12.6575C112.562 7.16495 108.109 2.71233 102.616 2.71233H97.1918C91.6991 2.71233 87.2466 7.16495 87.2466 12.6575V23.8265ZM96.2877 10.8493C96.2877 11.848 95.4781 12.6575 94.4795 12.6575C93.4808 12.6575 92.6712 11.848 92.6712 10.8493C92.6712 9.85066 93.4808 9.0411 94.4795 9.0411C95.4781 9.0411 96.2877 9.85066 96.2877 10.8493ZM105.329 12.6575C106.327 12.6575 107.137 11.848 107.137 10.8493C107.137 9.85066 106.327 9.0411 105.329 9.0411C104.33 9.0411 103.521 9.85066 103.521 10.8493C103.521 11.848 104.33 12.6575 105.329 12.6575Z" fill="#B0BEC5"/>
<path d="M60.1233 28.0185C59.9733 28.0244 59.8226 28.0274 59.6712 28.0274C53.4297 28.0274 48.3699 22.9676 48.3699 16.726C48.3699 16.5746 48.3728 16.4239 48.3787 16.274H48.361C48.3669 16.4239 48.3699 16.5746 48.3699 16.726C48.3699 22.9676 43.3101 28.0274 37.0685 28.0274C36.9171 28.0274 36.7664 28.0244 36.6164 28.0185V28.0363C36.7664 28.0304 36.9171 28.0274 37.0685 28.0274C43.3101 28.0274 48.3699 33.0872 48.3699 39.3288C48.3699 39.4802 48.3669 39.6309 48.361 39.7808H48.3787C48.3728 39.6309 48.3699 39.4802 48.3699 39.3288C48.3699 33.0872 53.4297 28.0274 59.6712 28.0274C59.8226 28.0274 59.9733 28.0304 60.1233 28.0363V28.0185Z" fill="#B0BEC5"/>
<path d="M42.9452 84.9822C42.876 84.9849 42.8064 84.9863 42.7366 84.9863C39.8558 84.9863 37.5205 82.651 37.5205 79.7703C37.5205 79.7004 37.5219 79.6309 37.5246 79.5616H37.5165C37.5192 79.6309 37.5205 79.7004 37.5205 79.7703C37.5205 82.651 35.1853 84.9863 32.3045 84.9863C32.2347 84.9863 32.1651 84.9849 32.0959 84.9822V84.9904C32.1651 84.9877 32.2347 84.9863 32.3045 84.9863C35.1853 84.9863 37.5205 87.3216 37.5205 90.2023C37.5205 90.2722 37.5192 90.3418 37.5165 90.411H37.5246C37.5219 90.3418 37.5205 90.2722 37.5205 90.2023C37.5205 87.3216 39.8558 84.9863 42.7366 84.9863C42.8064 84.9863 42.876 84.9877 42.9452 84.9904V84.9822Z" fill="#B0BEC5"/>
<path d="M155.055 31.1832C154.911 31.1889 154.766 31.1918 154.62 31.1918C148.619 31.1918 143.753 26.3266 143.753 20.3251C143.753 20.1795 143.756 20.0346 143.762 19.8904H143.745C143.751 20.0346 143.753 20.1795 143.753 20.3251C143.753 26.3266 138.888 31.1918 132.887 31.1918C132.741 31.1918 132.596 31.1889 132.452 31.1832V31.2003C132.596 31.1946 132.741 31.1918 132.887 31.1918C138.888 31.1918 143.753 36.057 143.753 42.0585C143.753 42.2041 143.751 42.349 143.745 42.4932H143.762C143.756 42.349 143.753 42.2041 143.753 42.0585C143.753 36.057 148.619 31.1918 154.62 31.1918C154.766 31.1918 154.911 31.1946 155.055 31.2003V31.1832Z" fill="#B0BEC5"/>
<path d="M130.192 117.986H127.932V138.329L130.192 137.425V117.986Z" fill="#B0BEC5"/>
<path d="M71.4247 117.986H69.1644V136.973L71.4247 137.877V117.986Z" fill="#B0BEC5"/>
<path d="M74.589 117.986H72.3288L74.589 124.315L76.3973 121.603L74.589 117.986Z" fill="#B0BEC5"/>
<path d="M124.315 117.986H126.575L124.767 124.767L122.959 121.603L124.315 117.986Z" fill="#B0BEC5"/>
<path d="M146.918 79.5616H144.205V129.288C144.205 130.286 144.813 131.096 145.562 131.096C146.311 131.096 146.918 130.286 146.918 129.288V79.5616Z" fill="#B0BEC5"/>
<path d="M133.356 117.986H131.096L136.973 135.164L139.233 133.808L133.356 117.986Z" fill="#B0BEC5"/>
<path d="M59.6712 133.808L66 117.534L68.2603 117.986L61.9315 135.164L59.6712 133.808Z" fill="#B0BEC5"/>
<path d="M61.9315 87.6986H63.7397V94.0274C63.7397 97.5227 66.5732 100.356 70.0685 100.356C73.5638 100.356 76.3973 97.5227 76.3973 94.0274V87.6986H78.2055V94.9315C78.2055 98.6199 75.4446 101.663 71.8767 102.108V109.397H68.2603V102.108C64.6924 101.663 61.9315 98.6199 61.9315 94.9315V87.6986Z" fill="#B0BEC5"/>
<path d="M81.8219 61.7332V34.3562H84.564C84.5444 34.6811 84.5342 35.009 84.5342 35.3396V57.6727C84.5342 65.5217 90.2013 71.8847 97.1918 71.8847H102.616C109.607 71.8847 115.274 65.5217 115.274 57.6727V35.3396C115.274 35.009 115.264 34.6811 115.244 34.3562H117.986V61.7332C117.986 69.5823 112.319 75.9452 105.329 75.9452H103.521V80.4658H96.2877V75.9452H94.4795C87.4889 75.9452 81.8219 69.5823 81.8219 61.7332Z" fill="#B0BEC5"/>
<path d="M128.836 75.9452C133.329 75.9452 136.973 78.7787 136.973 82.274V83.1781H120.699V82.274C120.699 78.7787 124.342 75.9452 128.836 75.9452Z" fill="#B0BEC5"/>
<path d="M120.699 91.3151V90.411H136.973V91.3151H120.699Z" fill="#B0BEC5"/>
<path d="M136.973 87.6986V88.6027H120.699V87.6986H136.973Z" fill="#B0BEC5"/>
<path d="M136.973 85.8904V84.9863H120.699V85.8904H136.973Z" fill="#B0BEC5"/>
<path fill-rule="evenodd" clip-rule="evenodd" d="M120.699 93.1233V97.6438H120.781C121.26 100.246 123.773 102.337 127.027 102.912V109.397H130.644V102.912C133.898 102.337 136.412 100.246 136.89 97.6438H136.973V93.1233H120.699ZM128.836 101.26C131.332 101.26 133.356 100.451 133.356 99.4521H124.315C124.315 100.451 126.339 101.26 128.836 101.26Z" fill="#B0BEC5"/>
<path d="M148.726 69.6164H142.397V72.3288H148.274C149.023 72.3288 149.63 72.9359 149.63 73.6849C149.63 74.4339 149.023 75.0411 148.274 75.0411H142.397V77.7534H148.726C150.723 77.7534 152.342 76.1343 152.342 74.137V73.2329C152.342 71.2356 150.723 69.6164 148.726 69.6164Z" fill="#B0BEC5"/>
<path d="M129.288 111.205C133.033 111.205 136.068 110.801 136.068 110.301V113.014C136.068 113.513 133.033 113.918 129.288 113.918C125.543 113.918 122.507 113.513 122.507 113.014V110.301C122.507 110.801 125.543 111.205 129.288 111.205Z" fill="#B0BEC5"/>
<path d="M69.6164 111.432C73.3613 111.432 76.3973 110.926 76.3973 110.301V113.692C76.3973 114.316 73.3613 114.822 69.6164 114.822C65.8715 114.822 62.8356 114.316 62.8356 113.692V110.301C62.8356 110.926 65.8715 111.432 69.6164 111.432Z" fill="#B0BEC5"/>
<path fill-rule="evenodd" clip-rule="evenodd" d="M69.7484 76.1329C69.6417 76.6475 69.3092 76.8692 68.751 76.7978C68.7185 75.8842 69.0509 75.6628 69.7484 76.1329Z" fill="#B0BEC5"/>
<path fill-rule="evenodd" clip-rule="evenodd" d="M68.7511 77.4626C69.0835 77.4626 69.4159 77.4626 69.7484 77.4626C69.7484 77.7951 69.7484 78.1275 69.7484 78.46C69.4159 78.46 69.0835 78.46 68.7511 78.46C68.7511 78.1275 68.7511 77.7951 68.7511 77.4626Z" fill="#B0BEC5"/>
<path fill-rule="evenodd" clip-rule="evenodd" d="M69.0835 79.1249C69.4159 79.1249 69.7484 79.1249 70.0808 79.1249C70.0808 79.4573 70.0808 79.7898 70.0808 80.1222C69.7484 80.1222 69.4159 80.1222 69.0835 80.1222C69.0835 79.7898 69.0835 79.4573 69.0835 79.1249Z" fill="#B0BEC5"/>
<path fill-rule="evenodd" clip-rule="evenodd" d="M69.7484 81.7844C70.0795 81.7558 70.3564 81.8669 70.5795 82.1169C70.6822 82.5377 70.8484 82.9257 71.0781 83.2804C70.0831 83.3659 69.64 82.8672 69.7484 81.7844Z" fill="#B0BEC5"/>
<path fill-rule="evenodd" clip-rule="evenodd" d="M68.751 74.8031C69.3617 74.8493 69.4724 75.071 69.0835 75.468C68.8182 75.3161 68.7075 75.0943 68.751 74.8031Z" fill="#B0BEC5"/>
<path fill-rule="evenodd" clip-rule="evenodd" d="M69.7484 84.7764C70.7108 85.0753 71.5974 85.5188 72.4079 86.1062C72.4448 86.3113 72.5555 86.4775 72.7404 86.6048C72.3105 86.7677 71.8671 86.8233 71.4106 86.7711C71.2284 85.912 70.6742 85.5796 69.7484 85.7737C69.7484 85.4413 69.7484 85.1089 69.7484 84.7764Z" fill="#B0BEC5"/>
<path fill-rule="evenodd" clip-rule="evenodd" d="M70.7457 75.1355C70.8564 75.1355 70.9675 75.1355 71.0782 75.1355C71.6177 76.0381 71.8395 77.0354 71.743 78.1275C70.4542 78.1332 70.2328 77.7455 71.0782 76.964C70.5988 76.8386 70.2663 76.5617 70.0808 76.1328C70.372 76.1764 70.5938 76.0657 70.7457 75.8004C69.8714 75.1332 69.8714 74.9114 70.7457 75.1355Z" fill="#B0BEC5"/>
<path fill-rule="evenodd" clip-rule="evenodd" d="M72.4079 75.1355C72.4079 75.3573 72.5186 75.468 72.7404 75.468C72.9289 75.9766 73.1503 76.4753 73.4053 76.964C72.9252 77.2236 72.4821 77.1681 72.0755 76.7978C72.5273 76.1974 72.4162 75.6987 71.743 75.3018C71.9405 75.1475 72.1623 75.092 72.4079 75.1355Z" fill="#B0BEC5"/>
<path fill-rule="evenodd" clip-rule="evenodd" d="M73.4053 75.8004C74.1609 75.9524 74.6041 76.3955 74.735 77.1302C74.0702 76.9085 73.627 76.4653 73.4053 75.8004Z" fill="#B0BEC5"/>
<path fill-rule="evenodd" clip-rule="evenodd" d="M72.4079 77.7951C72.739 77.7665 73.016 77.8775 73.239 78.1275C73.5077 78.8187 73.4521 79.4836 73.0728 80.1222C72.7404 80.0115 72.5186 79.7898 72.4079 79.4573C72.752 78.9161 72.752 78.3619 72.4079 77.7951Z" fill="#B0BEC5"/>
<path fill-rule="evenodd" clip-rule="evenodd" d="M73.7377 77.4626C74.0987 77.5025 74.3205 77.7243 74.4026 78.1275C74.6715 78.6215 74.6715 79.0647 74.4026 79.4573C74.0778 78.822 73.8564 78.1571 73.7377 77.4626Z" fill="#B0BEC5"/>
<path fill-rule="evenodd" clip-rule="evenodd" d="M71.0782 78.46C71.4392 78.4999 71.6609 78.7216 71.743 79.1249C71.4758 79.9417 71.1433 79.9417 70.7457 79.1249C70.8664 78.8978 70.9771 78.6761 71.0782 78.46Z" fill="#B0BEC5"/>
<path fill-rule="evenodd" clip-rule="evenodd" d="M74.735 77.1302C75.4644 77.7023 75.8524 78.4783 75.8986 79.4573C75.9804 80.5843 76.1466 81.6923 76.3973 82.7817C76.1888 83.0866 76.0778 83.419 76.0648 83.7791C76.1193 84.6724 76.0638 85.559 75.8986 86.4386C74.7454 85.796 74.1912 84.7987 74.2364 83.4466C73.9651 83.0068 73.5771 82.7854 73.0728 82.7817C73.5705 82.5138 74.1247 82.2924 74.735 82.1169C74.6516 83.1089 74.8733 84.1062 75.3999 85.1088C75.7849 82.4589 75.5632 79.7994 74.735 77.1302Z" fill="#B0BEC5"/>
<path fill-rule="evenodd" clip-rule="evenodd" d="M70.0808 80.4546C70.7457 80.4546 71.4106 80.4546 72.0755 80.4546C72.1483 80.8453 72.0376 81.1777 71.743 81.452C71.2554 81.0547 70.7567 81.0547 70.2471 81.452C69.6875 81.2272 69.632 80.8948 70.0808 80.4546Z" fill="#B0BEC5"/>
<path fill-rule="evenodd" clip-rule="evenodd" d="M73.7377 79.7897C74.0702 79.7897 74.4026 79.7897 74.735 79.7897C74.9059 80.4586 74.9611 81.1235 74.9013 81.7844C74.1739 81.3227 73.7863 80.6578 73.7377 79.7897Z" fill="#B0BEC5"/>
<path fill-rule="evenodd" clip-rule="evenodd" d="M72.7404 80.7871C73.7606 80.941 73.9269 81.3841 73.239 82.1169C72.8441 81.7635 72.6779 81.32 72.7404 80.7871Z" fill="#B0BEC5"/>
<path fill-rule="evenodd" clip-rule="evenodd" d="M73.0728 82.7817C72.3401 83.6454 71.7859 83.4792 71.4106 82.2831C71.5213 82.1169 71.6323 81.9506 71.743 81.7844C72.0034 82.3788 72.4465 82.7113 73.0728 82.7817Z" fill="#B0BEC5"/>
<path fill-rule="evenodd" clip-rule="evenodd" d="M72.4079 85.4413C71.7627 85.1301 71.2085 84.6866 70.7457 84.1115C71.0333 83.7515 71.3657 83.6963 71.743 83.9453C71.998 84.434 72.2194 84.9326 72.4079 85.4413Z" fill="#B0BEC5"/>
<path fill-rule="evenodd" clip-rule="evenodd" d="M73.7377 86.1062C73.627 86.1062 73.5159 86.1062 73.4052 86.1062C73.0728 85.9955 72.851 85.7737 72.7403 85.4413C72.8793 85.2013 73.1007 85.035 73.4052 84.9426C72.9155 84.7066 72.6938 84.319 72.7403 83.7791C73.0728 83.7791 73.4052 83.7791 73.7377 83.7791C74.0495 84.5803 74.0495 85.3562 73.7377 86.1062Z" fill="#B0BEC5"/>
<path fill-rule="evenodd" clip-rule="evenodd" d="M73.7377 86.1062C74.2706 86.0437 74.7141 86.2099 75.0675 86.6048C74.4149 86.8854 73.9717 86.7192 73.7377 86.1062Z" fill="#B0BEC5"/>
<path fill-rule="evenodd" clip-rule="evenodd" d="M68.0862 76.1329C67.8438 77.0308 67.7328 77.9171 67.7537 78.7924C68.5303 79.3153 68.5303 79.7585 67.7537 80.1222C67.4213 80.0115 67.1995 79.7897 67.0888 79.4573C67.0888 78.7924 67.0888 78.1275 67.0888 77.4626C66.8418 77.2359 66.6204 77.0142 66.4239 76.7978C66.7152 76.8413 66.9369 76.7306 67.0888 76.4653C66.8142 76.1492 66.7591 75.8167 66.9226 75.468C67.0333 75.5787 67.1444 75.6897 67.2551 75.8004C67.759 74.9524 68.036 75.0631 68.0862 76.1329Z" fill="#B0BEC5"/>
<path fill-rule="evenodd" clip-rule="evenodd" d="M66.4239 76.4653C66.1749 76.8081 65.9535 77.196 65.7591 77.6289C66.2022 78.072 66.2022 78.5155 65.7591 78.9586C66.4722 79.563 66.4722 80.0617 65.7591 80.4546C65.6194 79.4187 65.287 78.5321 64.7617 77.7951C65.0603 76.9956 65.5589 76.3307 66.2577 75.8004C66.412 75.9979 66.4675 76.2196 66.4239 76.4653Z" fill="#B0BEC5"/>
<path fill-rule="evenodd" clip-rule="evenodd" d="M64.7618 78.1275C64.6783 80.2053 64.6783 82.4217 64.7618 84.7764C64.1185 85.0134 64.0078 85.3459 64.4293 85.7737C64.5021 86.1644 64.3914 86.4968 64.0969 86.7711C63.7963 84.3941 63.6853 82.067 63.7644 79.7897C63.8588 79.0388 64.1913 78.4846 64.7618 78.1275Z" fill="#B0BEC5"/>
<path fill-rule="evenodd" clip-rule="evenodd" d="M67.4213 80.4546C67.7537 80.4546 68.0862 80.4546 68.4186 80.4546C68.3797 81.1142 68.6015 81.6681 69.0835 82.1169C68.8618 82.2276 68.6404 82.3386 68.4186 82.4493C68.2873 81.8263 67.8442 81.3276 67.0888 80.9533C67.2737 80.826 67.3844 80.6598 67.4213 80.4546Z" fill="#B0BEC5"/>
<path fill-rule="evenodd" clip-rule="evenodd" d="M65.4266 80.7871C65.7591 80.7871 66.0915 80.7871 66.4239 80.7871C66.3668 81.4493 66.5885 82.0032 67.0888 82.4493C67.0194 82.6441 66.9083 82.8103 66.7564 82.948C67.8774 83.8113 67.8774 84.4207 66.7564 84.7764C66.7527 83.6494 66.3093 82.7631 65.4266 82.1169C65.7135 81.7093 65.7135 81.2658 65.4266 80.7871Z" fill="#B0BEC5"/>
<path fill-rule="evenodd" clip-rule="evenodd" d="M69.7484 84.7764C69.0529 84.7561 68.5543 84.4237 68.2524 83.7791C68.1663 82.5769 68.5543 82.4662 69.416 83.4466C69.664 83.8575 69.7747 84.301 69.7484 84.7764Z" fill="#B0BEC5"/>
<path fill-rule="evenodd" clip-rule="evenodd" d="M66.4239 85.7737C66.1783 85.7302 65.9565 85.7857 65.7591 85.94C66.7005 86.5743 66.5898 86.8512 65.4266 86.7711C65.5054 86.3419 65.3947 86.0094 65.0942 85.7737C65.3073 84.8811 65.418 83.9945 65.4266 83.1142C65.7614 84.0085 66.0938 84.8948 66.4239 85.7737Z" fill="#B0BEC5"/>
<path fill-rule="evenodd" clip-rule="evenodd" d="M67.4213 86.771C67.1995 86.4386 66.9781 86.1062 66.7564 85.7737C67.2587 85.1284 67.9236 84.9622 68.7511 85.2751C68.0253 85.6756 67.5822 86.1743 67.4213 86.771Z" fill="#B0BEC5"/>
<path fill-rule="evenodd" clip-rule="evenodd" d="M69.7484 86.4386C69.4665 86.8126 69.134 86.8126 68.7511 86.4386C68.7075 86.1929 68.763 85.9712 68.9173 85.7737C69.1526 86.0666 69.4299 86.288 69.7484 86.4386Z" fill="#B0BEC5"/>
</svg>
