<svg width="70" height="72" viewBox="0 0 70 72" fill="none" xmlns="http://www.w3.org/2000/svg">
<g clip-path="url(#clip0_305_31450)">
<path d="M6.97266 1.82031H63.0273C66.3497 1.82031 69.043 4.5136 69.043 7.83594V64.1641C69.043 67.4864 66.3497 70.1797 63.0273 70.1797H6.97266C3.65032 70.1797 0.957031 67.4864 0.957031 64.1641V7.83594C0.957031 4.5136 3.65032 1.82031 6.97266 1.82031Z" fill="url(#paint0_linear_305_31450)" stroke="black" stroke-width="1.91406"/>
<path d="M33.6687 29.3363C34.7421 29.3363 35.6123 29.1809 35.6123 28.9893V30.0305C35.6123 30.2222 34.7421 30.3775 33.6687 30.3775C32.5953 30.3775 31.7251 30.2222 31.7251 30.0305V28.9893C31.7251 29.1809 32.5953 29.3363 33.6687 29.3363Z" fill="#F2ECE3"/>
<path d="M2.98779 41.7613L13.5388 35.6528L17.7036 37.8741V39.6789L12.8446 42.1778L2.98779 41.7613Z" fill="#FBEDDA"/>
<path d="M6.875 50.091L13.6776 43.4272L30.7535 50.7852L23.2568 57.5878L6.875 50.091Z" fill="url(#paint1_linear_305_31450)"/>
<path d="M53.5214 43.4272L36.3066 50.6463L43.9422 57.5878L60.1852 50.2299L53.5214 43.4272Z" fill="url(#paint2_linear_305_31450)"/>
<path d="M63.7946 41.6225L53.5213 35.6528L48.9399 37.8741L49.2176 39.6789L54.4931 42.3166L63.7946 41.6225Z" fill="url(#paint3_linear_305_31450)"/>
<path d="M14.2329 55.2277V59.2537L33.1136 68V52.0347L32.003 51.6182L23.2568 59.2537L14.2329 55.2277Z" fill="url(#paint4_linear_305_31450)"/>
<path d="M52.8275 59.2538L33.9468 67.8612V52.1736L35.0574 51.7571L43.6648 59.2538L52.8275 55.5055V59.2538Z" fill="url(#paint5_linear_305_31450)"/>
<path d="M50.7447 19.1323H45.4692V24.6855H50.7447V19.1323Z" fill="url(#paint6_linear_305_31450)"/>
<path d="M34.0854 31.9045V49.9523L35.1961 49.5358V46.6204L39.4998 47.8698L39.7774 47.0369L35.1961 45.6486V34.9588L34.0854 31.9045Z" fill="#D9D9D9"/>
<path d="M32.8359 32.0435V50.0912L31.6982 49.6747V46.7593L27.2896 48.0088L27.0051 47.1758L31.6982 45.7875V35.0977L32.8359 32.0435Z" fill="url(#paint7_linear_305_31450)"/>
<path d="M34.0854 31.9045V49.9523L35.1961 49.5358V46.6204L39.4998 47.8698L39.7774 47.0369L35.1961 45.6486V34.9588L34.0854 31.9045Z" fill="url(#paint8_linear_305_31450)"/>
<path d="M35.3348 30.5164L34.2241 30.9328L39.7773 46.3428L40.1938 46.6205L40.6102 46.3428L40.7491 45.7875L35.3348 30.5164Z" fill="url(#paint9_linear_305_31450)"/>
<path d="M31.7489 30.3774L32.8359 30.7939L27.4009 46.2039L26.9933 46.4816L26.5857 46.2039L26.4498 45.6486L31.7489 30.3774Z" fill="url(#paint10_linear_305_31450)"/>
<path d="M23.1182 30.9329H25.8947V32.5988H23.1182V30.9329Z" fill="#F8F3E7"/>
<path fill-rule="evenodd" clip-rule="evenodd" d="M23.3954 23.4168C23.5753 22.9012 23.6731 22.347 23.6731 21.77C23.6731 21.1931 23.5753 20.6389 23.3954 20.1233V17.6052H24.2284V25.6573H23.3954V23.4168ZM13.955 23.4168V20.1233C14.6357 18.1721 16.492 16.7722 18.6752 16.7722C20.8585 16.7722 22.7147 18.1721 23.3954 20.1233V23.4168C22.7147 25.368 20.8585 26.7679 18.6752 26.7679C16.492 26.7679 14.6357 25.368 13.955 23.4168ZM13.955 20.1233V17.6052H13.1221V25.6573H13.955V23.4168C13.7752 22.9012 13.6774 22.347 13.6774 21.77C13.6774 21.1931 13.7752 20.6389 13.955 20.1233ZM19.563 23.8068C20.076 23.5829 20.4881 23.1708 20.712 22.6578C20.9923 22.9637 21.3862 23.1583 21.7294 23.1583C22.3429 23.1583 22.5624 22.5368 22.5624 21.77C22.5624 21.0033 22.3429 20.3818 21.7294 20.3818C21.3862 20.3818 20.9923 20.5764 20.712 20.8823C20.4881 20.3693 20.076 19.9572 19.563 19.7333C19.8688 19.453 20.0635 19.0591 20.0635 18.7158C20.0635 18.1024 19.442 17.8828 18.6752 17.8828C17.9085 17.8828 17.2869 18.1024 17.2869 18.7158C17.2869 19.0591 17.4816 19.453 17.7875 19.7333C17.2745 19.9572 16.8624 20.3693 16.6385 20.8823C16.3582 20.5764 15.9643 20.3818 15.621 20.3818C15.0076 20.3818 14.788 21.0033 14.788 21.77C14.788 22.5368 15.0076 23.1583 15.621 23.1583C15.9643 23.1583 16.3582 22.9637 16.6385 22.6578C16.8624 23.1708 17.2745 23.5829 17.7875 23.8068C17.4816 24.0871 17.2869 24.481 17.2869 24.8243C17.2869 25.4377 17.9085 25.6573 18.6752 25.6573C19.442 25.6573 20.0635 25.4377 20.0635 24.8243C20.0635 24.481 19.8688 24.0871 19.563 23.8068ZM20.3412 21.77C20.3412 22.6901 19.5953 23.436 18.6752 23.436C17.7551 23.436 17.0093 22.6901 17.0093 21.77C17.0093 20.85 17.7551 20.1041 18.6752 20.1041C19.5953 20.1041 20.3412 20.85 20.3412 21.77ZM19.5082 21.77C19.5082 22.2301 19.1352 22.603 18.6752 22.603C18.2152 22.603 17.8422 22.2301 17.8422 21.77C17.8422 21.31 18.2152 20.9371 18.6752 20.9371C19.1352 20.9371 19.5082 21.31 19.5082 21.77ZM18.6752 22.0477C18.8286 22.0477 18.9529 21.9234 18.9529 21.77C18.9529 21.6167 18.8286 21.4924 18.6752 21.4924C18.5219 21.4924 18.3976 21.6167 18.3976 21.77C18.3976 21.9234 18.5219 22.0477 18.6752 22.0477Z" fill="url(#paint11_linear_305_31450)"/>
<rect x="17.5649" y="27.0457" width="3.05423" height="1.11063" fill="url(#paint12_linear_305_31450)"/>
<rect x="18.9531" y="28.4338" width="1.11063" height="15.8265" fill="url(#paint13_linear_305_31450)"/>
<rect x="27.0054" y="15.384" width="0.832972" height="2.22126" fill="url(#paint14_linear_305_31450)"/>
<rect x="39.4995" y="15.384" width="0.832972" height="2.22126" fill="url(#paint15_linear_305_31450)"/>
<rect x="41.9985" y="20.3818" width="1.11063" height="3.05423" fill="#F7F2E7"/>
<rect x="43.3867" y="18.9934" width="1.11063" height="5.83081" fill="#F6EDE4"/>
<path d="M53.9378 17.7441L52.4106 18.8548V25.1021L53.9378 26.0739V17.7441Z" fill="#F4E1CA"/>
<path fill-rule="evenodd" clip-rule="evenodd" d="M33.6688 10.6638C35.509 10.6638 37.0007 11.7826 37.0007 13.1627L37.0009 13.1627V22.0478C37.0009 23.4279 35.5091 24.5467 33.669 24.5467C31.8288 24.5467 30.3371 23.4279 30.3371 22.0478V13.188L30.3369 13.1627C30.3369 11.7826 31.8287 10.6638 33.6688 10.6638Z" fill="url(#paint16_linear_305_31450)"/>
<path fill-rule="evenodd" clip-rule="evenodd" d="M28.9487 7.33189C28.9487 5.49174 30.4405 4 32.2806 4H35.0572C36.8974 4 38.3891 5.49174 38.3891 7.33189V13.971L38.3891 13.9956C38.3891 14.0888 38.3864 14.1814 38.3811 14.2733H37.8247C37.8307 14.1815 37.8338 14.0889 37.8338 13.9956C37.8338 11.6955 35.9691 9.83079 33.6689 9.83079C31.3687 9.83079 29.5041 11.6955 29.5041 13.9956C29.5041 14.0889 29.5071 14.1815 29.5132 14.2733H28.9568C28.9515 14.1814 28.9488 14.0889 28.9488 13.9957H28.9487V7.33189ZM29.7817 11.3173C30.018 10.975 30.2984 10.6654 30.6147 10.3967V7.60955C30.6147 6.53612 31.4849 5.66594 32.5583 5.66594H34.7795C35.853 5.66594 36.7231 6.53612 36.7231 7.60955V10.3966C37.0394 10.6652 37.3198 10.9748 37.5561 11.3171V7.8872C37.5561 6.2004 36.1887 4.83297 34.5019 4.83297H32.8359C31.1491 4.83297 29.7817 6.2004 29.7817 7.8872V11.3173ZM32.5583 7.33187C32.5583 7.63856 32.3097 7.88718 32.003 7.88718C31.6963 7.88718 31.4477 7.63856 31.4477 7.33187C31.4477 7.02518 31.6963 6.77655 32.003 6.77655C32.3097 6.77655 32.5583 7.02518 32.5583 7.33187ZM35.3349 7.88718C35.6416 7.88718 35.8902 7.63856 35.8902 7.33187C35.8902 7.02518 35.6416 6.77655 35.3349 6.77655C35.0282 6.77655 34.7796 7.02518 34.7796 7.33187C34.7796 7.63856 35.0282 7.88718 35.3349 7.88718Z" fill="url(#paint17_linear_305_31450)"/>
<path fill-rule="evenodd" clip-rule="evenodd" d="M21.452 12.6046C21.4059 12.6064 21.3596 12.6074 21.3131 12.6074C19.4003 12.6074 17.8489 11.0599 17.8424 9.14856C17.836 11.0599 16.2846 12.6074 14.3717 12.6074C14.3252 12.6074 14.279 12.6065 14.2329 12.6046V12.6101C14.279 12.6083 14.3252 12.6074 14.3717 12.6074C16.2846 12.6074 17.836 14.1548 17.8424 16.0662C17.8489 14.1548 19.4003 12.6074 21.3131 12.6074C21.3596 12.6074 21.4059 12.6083 21.452 12.6101V12.6046ZM17.8424 9.12459C17.8426 9.08214 17.8435 9.03988 17.8451 8.9978H17.8397C17.8414 9.03988 17.8423 9.08214 17.8424 9.12459ZM17.8424 16.0902C17.8426 16.1326 17.8435 16.1748 17.8451 16.2169H17.8397C17.8414 16.1748 17.8423 16.1326 17.8424 16.0902Z" fill="#FFFB8D"/>
<path fill-rule="evenodd" clip-rule="evenodd" d="M16.1766 30.0985C16.1553 30.0994 16.1339 30.0998 16.1124 30.0998C15.2277 30.0998 14.5106 29.3826 14.5106 28.4979C14.5106 28.4765 14.511 28.4551 14.5118 28.4338H14.5093C14.5101 28.4551 14.5105 28.4765 14.5105 28.4979C14.5105 29.3814 13.7952 30.0979 12.9122 30.0998C13.7952 30.1017 14.5105 30.8181 14.5105 31.7017C14.5105 31.7231 14.5101 31.7445 14.5093 31.7657H14.5118C14.511 31.7445 14.5106 31.7231 14.5106 31.7017C14.5106 30.817 15.2277 30.0998 16.1124 30.0998C16.1339 30.0998 16.1553 30.1002 16.1766 30.101V30.0985ZM12.8447 30.0985C12.8648 30.0993 12.8849 30.0997 12.9051 30.0998C12.8849 30.0998 12.8648 30.1002 12.8447 30.101V30.0985Z" fill="#FFFB8D"/>
<path fill-rule="evenodd" clip-rule="evenodd" d="M50.606 13.5765C50.5617 13.5782 50.5172 13.5791 50.4726 13.5791C48.6295 13.5791 47.1353 12.085 47.1353 10.2419C47.1353 10.1972 47.1362 10.1527 47.1379 10.1084H47.1327C47.1344 10.1527 47.1353 10.1972 47.1353 10.2419C47.1353 12.085 45.6412 13.5791 43.7981 13.5791C43.7534 13.5791 43.7088 13.5782 43.6646 13.5765V13.5817C43.7088 13.58 43.7534 13.5791 43.7981 13.5791C45.6412 13.5791 47.1353 15.0732 47.1353 16.9163C47.1353 16.9611 47.1344 17.0056 47.1327 17.0498H47.1379C47.1362 17.0056 47.1353 16.9611 47.1353 16.9163C47.1353 15.0732 48.6295 13.5791 50.4726 13.5791C50.5172 13.5791 50.5617 13.58 50.606 13.5817V13.5765Z" fill="#FFFB8D"/>
<circle cx="33.6688" cy="21.2147" r="2.49892" fill="#0E171A"/>
<circle cx="33.6688" cy="13.9957" r="2.49892" fill="#0E171A"/>
<path d="M42.9705 40.2344H42.2764V46.4817L42.9705 46.204V40.2344Z" fill="#E1CFBB"/>
<path d="M24.9227 40.2344H24.2285V46.0652L24.9227 46.3428V40.2344Z" fill="#ECE6D8"/>
<path d="M25.8943 40.2344H25.2002L25.8943 42.178L26.4497 41.345L25.8943 40.2344Z" fill="url(#paint18_linear_305_31450)"/>
<path d="M41.1655 40.2344H41.8597L41.3043 42.3168L40.749 41.345L41.1655 40.2344Z" fill="#D0B599"/>
<path d="M48.1069 28.4338H47.2739V43.705C47.2739 44.0117 47.4604 44.2603 47.6904 44.2603C47.9204 44.2603 48.1069 44.0117 48.1069 43.705V28.4338Z" fill="url(#paint19_linear_305_31450)"/>
<path d="M43.9421 40.2343H43.2479L45.0527 45.5098L45.7468 45.0933L43.9421 40.2343Z" fill="#DAC6B2"/>
<path d="M21.313 45.0933L23.2566 40.0955L23.9507 40.2343L22.0071 45.5098L21.313 45.0933Z" fill="#DAC6B2"/>
<path d="M22.0073 30.9329H22.5626V32.8765C22.5626 33.9499 23.4328 34.8201 24.5062 34.8201C25.5797 34.8201 26.4498 33.9499 26.4498 32.8765V30.9329H27.0052V33.1541C27.0052 34.2868 26.1573 35.2216 25.0616 35.3582V37.5966H23.9509V35.3582C22.8552 35.2216 22.0073 34.2868 22.0073 33.1541V30.9329Z" fill="#F0EDE8"/>
<path d="M28.1157 22.9587V14.551H28.9578C28.9518 14.6508 28.9487 14.7515 28.9487 14.853V21.7117C28.9487 24.1222 30.6891 26.0762 32.8359 26.0762H34.5018C36.6487 26.0762 38.389 24.1222 38.389 21.7117V14.853C38.389 14.7515 38.3859 14.6508 38.3799 14.551H39.222V22.9587C39.222 25.3692 37.4816 27.3233 35.3348 27.3233H34.7795V28.7116H32.5582V27.3233H32.0029C29.8561 27.3233 28.1157 25.3692 28.1157 22.9587Z" fill="url(#paint20_linear_305_31450)"/>
<path d="M42.5541 27.3232C43.9342 27.3232 45.053 28.1934 45.053 29.2668V29.5445H40.0552V29.2668C40.0552 28.1934 41.174 27.3232 42.5541 27.3232Z" fill="#D0B599"/>
<path d="M40.0552 32.0434V31.7658H45.053V32.0434H40.0552Z" fill="#D0B599"/>
<path d="M45.053 30.9328V31.2104H40.0552V30.9328H45.053Z" fill="#D0B599"/>
<path d="M45.053 30.3775V30.0998H40.0552V30.3775H45.053Z" fill="#D0B599"/>
<path fill-rule="evenodd" clip-rule="evenodd" d="M40.0552 32.5987V33.987H40.0805C40.2274 34.7861 40.9994 35.4284 41.9988 35.6048V37.5966H43.1094V35.6048C44.1088 35.4284 44.8808 34.7861 45.0277 33.987H45.053V32.5987H40.0552ZM42.5541 35.0976C43.3208 35.0976 43.9424 34.849 43.9424 34.5423H41.1658C41.1658 34.849 41.7873 35.0976 42.5541 35.0976Z" fill="#D0B599"/>
<path fill-rule="evenodd" clip-rule="evenodd" d="M48.6624 25.3796H46.7188V27.8786H48.6624C49.2757 27.8786 49.773 27.3813 49.773 26.7679V26.4903C49.773 25.8769 49.2757 25.3796 48.6624 25.3796ZM48.5236 26.2126H46.7188V27.0456H48.5236C48.7536 27.0456 48.9401 26.8592 48.9401 26.6291C48.9401 26.3991 48.7536 26.2126 48.5236 26.2126Z" fill="url(#paint21_radial_305_31450)"/>
<path d="M42.6928 38.1519C43.8429 38.1519 44.7752 38.0276 44.7752 37.8743V38.7072C44.7752 38.8606 43.8429 38.9849 42.6928 38.9849C41.5427 38.9849 40.6104 38.8606 40.6104 38.7072V37.8743C40.6104 38.0276 41.5427 38.1519 42.6928 38.1519Z" fill="#D0B599"/>
<path d="M24.3676 38.2213C25.5177 38.2213 26.45 38.066 26.45 37.8743V38.9155C26.45 39.1072 25.5177 39.2626 24.3676 39.2626C23.2175 39.2626 22.2852 39.1072 22.2852 38.9155V37.8743C22.2852 38.066 23.2175 38.2213 24.3676 38.2213Z" fill="#F3EBDF"/>
<path fill-rule="evenodd" clip-rule="evenodd" d="M24.4078 27.3808C24.375 27.5388 24.2729 27.6069 24.1015 27.585C24.0915 27.3044 24.1936 27.2364 24.4078 27.3808Z" fill="#F5EEE3"/>
<path fill-rule="evenodd" clip-rule="evenodd" d="M24.1015 27.7892C24.2036 27.7892 24.3057 27.7892 24.4078 27.7892C24.4078 27.8913 24.4078 27.9934 24.4078 28.0955C24.3057 28.0955 24.2036 28.0955 24.1015 28.0955C24.1015 27.9934 24.1015 27.8913 24.1015 27.7892Z" fill="#F5EEE3"/>
<path fill-rule="evenodd" clip-rule="evenodd" d="M24.2036 28.2997C24.3057 28.2997 24.4078 28.2997 24.5099 28.2997C24.5099 28.4017 24.5099 28.5038 24.5099 28.6059C24.4078 28.6059 24.3057 28.6059 24.2036 28.6059C24.2036 28.5038 24.2036 28.4017 24.2036 28.2997Z" fill="#F5EEE3"/>
<path fill-rule="evenodd" clip-rule="evenodd" d="M24.4078 29.1164C24.5095 29.1076 24.5945 29.1417 24.663 29.2185C24.6946 29.3478 24.7456 29.4669 24.8162 29.5758C24.5106 29.6021 24.3745 29.4489 24.4078 29.1164Z" fill="#F5EEE3"/>
<path fill-rule="evenodd" clip-rule="evenodd" d="M24.1015 26.9724C24.289 26.9866 24.323 27.0547 24.2036 27.1766C24.1221 27.1299 24.0881 27.0618 24.1015 26.9724Z" fill="#F5EEE3"/>
<path fill-rule="evenodd" clip-rule="evenodd" d="M24.4078 30.0353C24.7034 30.1271 24.9757 30.2633 25.2246 30.4437C25.2359 30.5066 25.2699 30.5577 25.3267 30.5968C25.1946 30.6468 25.0584 30.6639 24.9183 30.6478C24.8623 30.384 24.6921 30.2819 24.4078 30.3416C24.4078 30.2395 24.4078 30.1374 24.4078 30.0353Z" fill="#F5EEE3"/>
<path fill-rule="evenodd" clip-rule="evenodd" d="M24.7141 27.0745C24.7481 27.0745 24.7822 27.0745 24.8162 27.0745C24.9819 27.3517 25.05 27.658 25.0204 27.9934C24.6245 27.9951 24.5565 27.8761 24.8162 27.636C24.669 27.5975 24.5669 27.5125 24.5099 27.3808C24.5993 27.3942 24.6674 27.3602 24.7141 27.2787C24.4456 27.0738 24.4456 27.0057 24.7141 27.0745Z" fill="#F5EEE3"/>
<path fill-rule="evenodd" clip-rule="evenodd" d="M25.2246 27.0745C25.2246 27.1426 25.2586 27.1766 25.3267 27.1766C25.3845 27.3328 25.4525 27.486 25.5308 27.636C25.3834 27.7158 25.2473 27.6987 25.1225 27.585C25.2612 27.4006 25.2271 27.2475 25.0204 27.1256C25.081 27.0782 25.1491 27.0611 25.2246 27.0745Z" fill="#F5EEE3"/>
<path fill-rule="evenodd" clip-rule="evenodd" d="M25.5308 27.2787C25.7629 27.3254 25.899 27.4614 25.9392 27.6871C25.735 27.619 25.5989 27.4829 25.5308 27.2787Z" fill="#F5EEE3"/>
<path fill-rule="evenodd" clip-rule="evenodd" d="M25.2246 27.8913C25.3262 27.8825 25.4113 27.9166 25.4798 27.9934C25.5623 28.2056 25.5452 28.4098 25.4287 28.6059C25.3267 28.5719 25.2586 28.5038 25.2246 28.4018C25.3302 28.2355 25.3302 28.0653 25.2246 27.8913Z" fill="#F5EEE3"/>
<path fill-rule="evenodd" clip-rule="evenodd" d="M25.6329 27.7892C25.7438 27.8014 25.8119 27.8695 25.8371 27.9934C25.9197 28.1451 25.9197 28.2812 25.8371 28.4017C25.7374 28.2066 25.6694 28.0025 25.6329 27.7892Z" fill="#F5EEE3"/>
<path fill-rule="evenodd" clip-rule="evenodd" d="M24.8162 28.0955C24.9271 28.1077 24.9952 28.1758 25.0204 28.2997C24.9383 28.5505 24.8362 28.5505 24.7141 28.2997C24.7511 28.2299 24.7851 28.1618 24.8162 28.0955Z" fill="#F5EEE3"/>
<path fill-rule="evenodd" clip-rule="evenodd" d="M25.9392 27.6871C26.1632 27.8628 26.2824 28.1011 26.2966 28.4017C26.3217 28.7479 26.3727 29.0881 26.4497 29.4227C26.3857 29.5163 26.3516 29.6184 26.3476 29.729C26.3644 30.0033 26.3473 30.2756 26.2966 30.5458C25.9424 30.3484 25.7722 30.0421 25.7861 29.6269C25.7028 29.4918 25.5836 29.4238 25.4287 29.4227C25.5816 29.3404 25.7518 29.2724 25.9392 29.2185C25.9136 29.5232 25.9817 29.8295 26.1434 30.1374C26.2616 29.3236 26.1935 28.5068 25.9392 27.6871Z" fill="#F5EEE3"/>
<path fill-rule="evenodd" clip-rule="evenodd" d="M24.5099 28.708C24.7141 28.708 24.9183 28.708 25.1225 28.708C25.1448 28.828 25.1108 28.9301 25.0204 29.0143C24.8706 28.8923 24.7175 28.8923 24.5609 29.0143C24.3891 28.9453 24.3721 28.8432 24.5099 28.708Z" fill="#F5EEE3"/>
<path fill-rule="evenodd" clip-rule="evenodd" d="M25.6329 28.5038C25.735 28.5038 25.8371 28.5038 25.9392 28.5038C25.9917 28.7093 26.0087 28.9135 25.9903 29.1164C25.7669 28.9746 25.6478 28.7704 25.6329 28.5038Z" fill="#F5EEE3"/>
<path fill-rule="evenodd" clip-rule="evenodd" d="M25.3266 28.8101C25.64 28.8574 25.691 28.9935 25.4798 29.2185C25.3585 29.11 25.3075 28.9738 25.3266 28.8101Z" fill="#F5EEE3"/>
<path fill-rule="evenodd" clip-rule="evenodd" d="M25.4287 29.4227C25.2037 29.6879 25.0335 29.6369 24.9183 29.2696C24.9523 29.2185 24.9864 29.1675 25.0204 29.1164C25.1003 29.299 25.2364 29.4011 25.4287 29.4227Z" fill="#F5EEE3"/>
<path fill-rule="evenodd" clip-rule="evenodd" d="M25.2246 30.2395C25.0264 30.1439 24.8562 30.0077 24.7141 29.8311C24.8024 29.7205 24.9045 29.7036 25.0204 29.78C25.0987 29.9301 25.1667 30.0833 25.2246 30.2395Z" fill="#F5EEE3"/>
<path fill-rule="evenodd" clip-rule="evenodd" d="M25.6329 30.4437C25.5989 30.4437 25.5648 30.4437 25.5308 30.4437C25.4287 30.4097 25.3606 30.3416 25.3266 30.2395C25.3693 30.1658 25.4373 30.1147 25.5308 30.0863C25.3804 30.0138 25.3124 29.8948 25.3266 29.729C25.4287 29.729 25.5308 29.729 25.6329 29.729C25.7287 29.975 25.7287 30.2133 25.6329 30.4437Z" fill="#F5EEE3"/>
<path fill-rule="evenodd" clip-rule="evenodd" d="M25.6329 30.4437C25.7966 30.4245 25.9328 30.4755 26.0413 30.5968C25.8409 30.683 25.7048 30.6319 25.6329 30.4437Z" fill="#F5EEE3"/>
<path fill-rule="evenodd" clip-rule="evenodd" d="M23.8973 27.3808C23.8229 27.6566 23.7888 27.9287 23.7952 28.1976C24.0337 28.3582 24.0337 28.4942 23.7952 28.6059C23.6931 28.5719 23.625 28.5038 23.591 28.4017C23.591 28.1976 23.591 27.9934 23.591 27.7892C23.5152 27.7195 23.4472 27.6514 23.3868 27.585C23.4763 27.5984 23.5444 27.5644 23.591 27.4829C23.5067 27.3858 23.4898 27.2837 23.54 27.1766C23.574 27.2106 23.6081 27.2447 23.6421 27.2787C23.7969 27.0183 23.8819 27.0522 23.8973 27.3808Z" fill="#F5EEE3"/>
<path fill-rule="evenodd" clip-rule="evenodd" d="M23.3868 27.4829C23.3104 27.5881 23.2424 27.7073 23.1826 27.8402C23.3187 27.9763 23.3187 28.1125 23.1826 28.2486C23.4016 28.4342 23.4016 28.5874 23.1826 28.708C23.1398 28.3899 23.0377 28.1176 22.8764 27.8913C22.968 27.6457 23.1212 27.4415 23.3358 27.2787C23.3832 27.3393 23.4002 27.4074 23.3868 27.4829Z" fill="#F5EEE3"/>
<path fill-rule="evenodd" clip-rule="evenodd" d="M22.8764 27.9934C22.8507 28.6315 22.8507 29.3121 22.8764 30.0353C22.6788 30.1081 22.6448 30.2102 22.7743 30.3416C22.7966 30.4615 22.7626 30.5636 22.6722 30.6478C22.5799 29.9179 22.5458 29.2032 22.5701 28.5038C22.5991 28.2732 22.7012 28.103 22.8764 27.9934Z" fill="#F5EEE3"/>
<path fill-rule="evenodd" clip-rule="evenodd" d="M23.6931 28.708C23.7952 28.708 23.8973 28.708 23.9994 28.708C23.9875 28.9106 24.0556 29.0807 24.2036 29.2185C24.1355 29.2525 24.0675 29.2866 23.9994 29.3206C23.9591 29.1293 23.823 28.9761 23.591 28.8612C23.6478 28.8221 23.6818 28.771 23.6931 28.708Z" fill="#F5EEE3"/>
<path fill-rule="evenodd" clip-rule="evenodd" d="M23.0806 28.8101C23.1826 28.8101 23.2847 28.8101 23.3868 28.8101C23.3693 29.0135 23.4374 29.1836 23.591 29.3206C23.5697 29.3804 23.5356 29.4315 23.4889 29.4738C23.8332 29.7389 23.8332 29.926 23.4889 30.0353C23.4878 29.6892 23.3516 29.417 23.0806 29.2185C23.1687 29.0933 23.1687 28.9571 23.0806 28.8101Z" fill="#F5EEE3"/>
<path fill-rule="evenodd" clip-rule="evenodd" d="M24.4078 30.0353C24.1942 30.029 24.0411 29.9269 23.9484 29.729C23.9219 29.3598 24.0411 29.3258 24.3057 29.6269C24.3819 29.7531 24.4159 29.8893 24.4078 30.0353Z" fill="#F5EEE3"/>
<path fill-rule="evenodd" clip-rule="evenodd" d="M23.3868 30.3416C23.3114 30.3282 23.2433 30.3452 23.1826 30.3926C23.4718 30.5874 23.4378 30.6725 23.0806 30.6478C23.1048 30.516 23.0708 30.4139 22.9785 30.3416C23.0439 30.0674 23.0779 29.7951 23.0806 29.5248C23.1834 29.7994 23.2855 30.0716 23.3868 30.3416Z" fill="#F5EEE3"/>
<path fill-rule="evenodd" clip-rule="evenodd" d="M23.6931 30.6478C23.625 30.5457 23.557 30.4437 23.4889 30.3416C23.6432 30.1434 23.8474 30.0923 24.1015 30.1884C23.8786 30.3114 23.7425 30.4646 23.6931 30.6478Z" fill="#F5EEE3"/>
<path fill-rule="evenodd" clip-rule="evenodd" d="M24.4078 30.5458C24.3212 30.6606 24.2191 30.6606 24.1015 30.5458C24.0881 30.4703 24.1052 30.4022 24.1526 30.3416C24.2248 30.4315 24.31 30.4995 24.4078 30.5458Z" fill="#F5EEE3"/>
<path fill-rule="evenodd" clip-rule="evenodd" d="M33.3911 19.2816C34.5291 19.3664 35.4365 19.9591 35.5896 20.7114C35.6046 20.6492 35.6124 20.5855 35.6124 20.5207C35.6124 19.8306 34.732 19.2712 33.6461 19.2712C33.5597 19.2712 33.4746 19.2748 33.3911 19.2816Z" fill="#D9D9D9" fill-opacity="0.9"/>
<path fill-rule="evenodd" clip-rule="evenodd" d="M33.3911 12.0624C34.5291 12.1471 35.4365 12.7399 35.5896 13.4921C35.6046 13.43 35.6124 13.3663 35.6124 13.3015C35.6124 12.6114 34.732 12.052 33.6461 12.052C33.5597 12.052 33.4746 12.0555 33.3911 12.0624Z" fill="#D9D9D9" fill-opacity="0.9"/>
<path fill-rule="evenodd" clip-rule="evenodd" d="M32.8359 22.8823C33.0344 23.0538 33.3257 23.166 33.7324 23.166C34.6525 23.166 35.5372 22.4533 35.5372 21.9165C35.5372 21.6492 35.3499 21.7881 35.0493 22.0109C35.0097 22.0403 34.9681 22.0712 34.9247 22.1027C34.542 22.4716 33.6768 22.8884 33.0383 22.8884C32.9697 22.8884 32.9021 22.8863 32.8359 22.8823Z" fill="#D9D9D9" fill-opacity="0.44"/>
<path fill-rule="evenodd" clip-rule="evenodd" d="M32.8359 15.3857C33.0344 15.5572 33.3257 15.6694 33.7325 15.6694C34.6525 15.6694 35.5372 14.9567 35.5372 14.42C35.5372 14.1527 35.3499 14.2915 35.0494 14.5144C35.0097 14.5437 34.9681 14.5746 34.9247 14.6062C34.5419 14.975 33.6767 15.3918 33.0383 15.3918C32.9697 15.3918 32.9021 15.3897 32.8359 15.3857Z" fill="#D9D9D9" fill-opacity="0.44"/>
<path d="M33.1123 20.4737C33.0309 20.4152 32.9365 20.3817 32.8359 20.3817C32.5292 20.3817 32.2806 20.6925 32.2806 21.0759C32.2806 21.0916 32.281 21.1072 32.2818 21.1227C32.1152 21.0029 32.0029 20.7781 32.0029 20.5206C32.0029 20.1372 32.2516 19.8264 32.5582 19.8264C32.8523 19.8264 33.093 20.1122 33.1123 20.4737Z" fill="#D9D9D9"/>
<path d="M33.1136 20.937C33.1136 21.0904 32.9892 21.2147 32.8359 21.2147C32.6826 21.2147 32.5582 21.0904 32.5582 20.937C32.5582 20.7837 32.6826 20.6594 32.8359 20.6594C32.9892 20.6594 33.1136 20.7837 33.1136 20.937Z" fill="#D9D9D9"/>
<path d="M33.1123 13.2547C33.0309 13.1962 32.9365 13.1627 32.8359 13.1627C32.5292 13.1627 32.2806 13.4735 32.2806 13.8569C32.2806 13.8726 32.281 13.8883 32.2818 13.9037C32.1152 13.7839 32.0029 13.5591 32.0029 13.3016C32.0029 12.9182 32.2516 12.6074 32.5582 12.6074C32.8523 12.6074 33.093 12.8932 33.1123 13.2547Z" fill="#D9D9D9"/>
<path d="M33.1136 13.7181C33.1136 13.8714 32.9892 13.9957 32.8359 13.9957C32.6826 13.9957 32.5582 13.8714 32.5582 13.7181C32.5582 13.5647 32.6826 13.4404 32.8359 13.4404C32.9892 13.4404 33.1136 13.5647 33.1136 13.7181Z" fill="#D9D9D9"/>
</g>
<defs>
<linearGradient id="paint0_linear_305_31450" x1="19.0948" y1="11.6611" x2="77.3602" y2="59.6554" gradientUnits="userSpaceOnUse">
<stop offset="0.105" stop-color="#2C3E50"/>
<stop offset="0.465" stop-color="#080808"/>
</linearGradient>
<linearGradient id="paint1_linear_305_31450" x1="12.4281" y1="43.4272" x2="24.6451" y2="58.9761" gradientUnits="userSpaceOnUse">
<stop stop-color="#FAECD7"/>
<stop offset="1" stop-color="#F5DBC2"/>
</linearGradient>
<linearGradient id="paint2_linear_305_31450" x1="36.4455" y1="50.6463" x2="60.324" y2="50.6463" gradientUnits="userSpaceOnUse">
<stop stop-color="#DCC0A3"/>
<stop offset="1" stop-color="#C4A17C"/>
</linearGradient>
<linearGradient id="paint3_linear_305_31450" x1="51.7165" y1="35.6528" x2="63.9334" y2="42.3166" gradientUnits="userSpaceOnUse">
<stop stop-color="#DCC3A7"/>
<stop offset="1" stop-color="#C9A987"/>
</linearGradient>
<linearGradient id="paint4_linear_305_31450" x1="26.1982" y1="65.3747" x2="23.6733" y2="53.1453" gradientUnits="userSpaceOnUse">
<stop stop-color="#CEB090"/>
<stop offset="1" stop-color="#6B4A33"/>
</linearGradient>
<linearGradient id="paint5_linear_305_31450" x1="36.7234" y1="65.5011" x2="47.6908" y2="57.3102" gradientUnits="userSpaceOnUse">
<stop stop-color="#BE9F7E"/>
<stop offset="0.716077" stop-color="#866043"/>
<stop offset="1" stop-color="#5E3A24"/>
</linearGradient>
<linearGradient id="paint6_linear_305_31450" x1="45.6081" y1="22.0477" x2="50.8836" y2="22.0477" gradientUnits="userSpaceOnUse">
<stop stop-color="#F8E4CD"/>
<stop offset="1" stop-color="#F2DCC4"/>
</linearGradient>
<linearGradient id="paint7_linear_305_31450" x1="30.0594" y1="50.0912" x2="32.003" y2="34.6812" gradientUnits="userSpaceOnUse">
<stop stop-color="#74675B"/>
<stop offset="0.305162" stop-color="#CDB094"/>
</linearGradient>
<linearGradient id="paint8_linear_305_31450" x1="32.003" y1="32.7375" x2="39.7774" y2="49.397" gradientUnits="userSpaceOnUse">
<stop offset="0.734182" stop-color="#D0B599"/>
<stop offset="0.860457" stop-color="#94745D"/>
</linearGradient>
<linearGradient id="paint9_linear_305_31450" x1="35.4736" y1="30.6552" x2="41.8597" y2="48.4253" gradientUnits="userSpaceOnUse">
<stop offset="0.621375" stop-color="#F0DECE"/>
<stop offset="0.874605" stop-color="#7E6550"/>
</linearGradient>
<linearGradient id="paint10_linear_305_31450" x1="31.5865" y1="30.9328" x2="26.4498" y2="46.4816" gradientUnits="userSpaceOnUse">
<stop offset="0.765194" stop-color="#F3F2F7"/>
<stop offset="1" stop-color="#B09D88"/>
</linearGradient>
<linearGradient id="paint11_linear_305_31450" x1="18.6752" y1="16.7722" x2="18.6752" y2="26.7679" gradientUnits="userSpaceOnUse">
<stop offset="0.12" stop-color="#F5F6F3"/>
<stop offset="0.755" stop-color="#F3EBDC"/>
</linearGradient>
<linearGradient id="paint12_linear_305_31450" x1="19.0921" y1="27.0457" x2="19.0921" y2="28.1563" gradientUnits="userSpaceOnUse">
<stop offset="0.12" stop-color="#F5F6F3"/>
<stop offset="0.755" stop-color="#F3EBDC"/>
</linearGradient>
<linearGradient id="paint13_linear_305_31450" x1="19.5084" y1="28.4338" x2="19.5084" y2="44.2603" gradientUnits="userSpaceOnUse">
<stop offset="0.12" stop-color="#F5F6F3"/>
<stop offset="0.755" stop-color="#F3EBDC"/>
</linearGradient>
<linearGradient id="paint14_linear_305_31450" x1="27.4219" y1="15.384" x2="27.4219" y2="17.6053" gradientUnits="userSpaceOnUse">
<stop stop-color="#F5F6F6"/>
<stop offset="1" stop-color="#F4E3D0"/>
</linearGradient>
<linearGradient id="paint15_linear_305_31450" x1="39.916" y1="15.384" x2="39.916" y2="17.6053" gradientUnits="userSpaceOnUse">
<stop stop-color="#F5F6F6"/>
<stop offset="1" stop-color="#F4E3D0"/>
</linearGradient>
<linearGradient id="paint16_linear_305_31450" x1="30.3369" y1="18.5771" x2="37.6948" y2="19.1324" gradientUnits="userSpaceOnUse">
<stop stop-color="#FAF3E6"/>
<stop offset="1" stop-color="#F6DFC7"/>
</linearGradient>
<linearGradient id="paint17_linear_305_31450" x1="28.9487" y1="8.44252" x2="38.3891" y2="13.5792" gradientUnits="userSpaceOnUse">
<stop stop-color="#F2F2EE"/>
<stop offset="0.717775" stop-color="#E7D1BA"/>
<stop offset="0.887301" stop-color="#BFA894"/>
</linearGradient>
<linearGradient id="paint18_linear_305_31450" x1="25.8943" y1="41.2062" x2="26.4497" y2="41.6227" gradientUnits="userSpaceOnUse">
<stop stop-color="#EADACC"/>
<stop offset="1" stop-color="#BAAFA5"/>
</linearGradient>
<linearGradient id="paint19_linear_305_31450" x1="47.6904" y1="28.4338" x2="47.6904" y2="44.2603" gradientUnits="userSpaceOnUse">
<stop stop-color="#4E4A3F"/>
<stop offset="0.11" stop-color="#DACAB9"/>
</linearGradient>
<linearGradient id="paint20_linear_305_31450" x1="28.1157" y1="18.5771" x2="39.222" y2="21.7701" gradientUnits="userSpaceOnUse">
<stop stop-color="#F5F6F6"/>
<stop offset="1" stop-color="#F4E3D0"/>
</linearGradient>
<radialGradient id="paint21_radial_305_31450" cx="0" cy="0" r="1" gradientUnits="userSpaceOnUse" gradientTransform="translate(46.7187 26.7679) rotate(-24.444) scale(3.35495 4.10049)">
<stop offset="0.095" stop-color="#9D8C7E"/>
<stop offset="0.23" stop-color="#E9D8C5"/>
<stop offset="0.87" stop-color="#F7EEE3"/>
</radialGradient>
<clipPath id="clip0_305_31450">
<rect width="70" height="70.2734" fill="white" transform="translate(0 0.863281)"/>
</clipPath>
</defs>
</svg>
