<svg width="221" height="232" viewBox="0 0 221 232" fill="none" xmlns="http://www.w3.org/2000/svg">
<path d="M111.505 91.9432C115.388 91.9432 118.537 91.381 118.537 90.6875V94.4546C118.537 95.1482 115.388 95.7103 111.505 95.7103C107.621 95.7103 104.473 95.1482 104.473 94.4546V90.6875C104.473 91.381 107.621 91.9432 111.505 91.9432Z" fill="#F2ECE3"/>
<path d="M0.5 136.897L38.6735 114.797L53.742 122.833V129.363L36.1621 138.404L0.5 136.897Z" fill="#FBEDDA"/>
<path d="M14.564 167.034L39.1758 142.925L100.957 169.546L73.8334 194.158L14.564 167.034Z" fill="url(#paint0_linear_305_32413)"/>
<path d="M183.331 142.925L121.048 169.044L148.673 194.158L207.441 167.537L183.331 142.925Z" fill="url(#paint1_linear_305_32413)"/>
<path d="M220.5 136.395L183.331 114.797L166.755 122.833L167.76 129.363L186.847 138.906L220.5 136.395Z" fill="url(#paint2_linear_305_32413)"/>
<path d="M41.1851 185.619V200.185L109.496 231.829V174.066L105.477 172.56L73.8335 200.185L41.1851 185.619Z" fill="url(#paint3_linear_305_32413)"/>
<path d="M180.82 200.185L112.509 231.326V174.568L116.528 173.062L147.669 200.185L180.82 186.623V200.185Z" fill="url(#paint4_linear_305_32413)"/>
<path d="M173.285 55.0254H154.199V75.1167H173.285V55.0254Z" fill="url(#paint5_linear_305_32413)"/>
<path d="M113.011 101.235V166.532L117.029 165.025V154.477L132.6 158.998L133.605 155.984L117.029 150.961V112.286L113.011 101.235Z" fill="#D9D9D9"/>
<path d="M108.491 101.737V167.034L104.374 165.527V154.979L88.4239 159.5L87.3948 156.486L104.374 151.463V112.788L108.491 101.737Z" fill="url(#paint6_linear_305_32413)"/>
<path d="M113.011 101.235V166.532L117.029 165.025V154.477L132.6 158.998L133.605 155.984L117.029 150.961V112.286L113.011 101.235Z" fill="url(#paint7_linear_305_32413)"/>
<path d="M117.532 96.2124L113.514 97.7193L133.605 153.473L135.112 154.477L136.619 153.473L137.121 151.464L117.532 96.2124Z" fill="url(#paint8_linear_305_32413)"/>
<path d="M104.558 95.71L108.491 97.2168L88.8269 152.97L87.3521 153.975L85.8773 152.97L85.3857 150.961L104.558 95.71Z" fill="url(#paint9_linear_305_32413)"/>
<path d="M73.3311 97.7192H83.3767V103.747H73.3311V97.7192Z" fill="#F8F3E7"/>
<path fill-rule="evenodd" clip-rule="evenodd" d="M74.3355 70.5266C74.9863 68.661 75.34 66.6561 75.34 64.5685C75.34 62.481 74.9863 60.4761 74.3355 58.6104V49.5H77.3492V78.6325H74.3355V70.5266ZM40.1802 70.5266V58.6104C42.6428 51.5512 49.3588 46.4863 57.2578 46.4863C65.1568 46.4863 71.8728 51.5512 74.3355 58.6104V70.5266C71.8728 77.5859 65.1568 82.6507 57.2578 82.6507C49.3588 82.6507 42.6428 77.5859 40.1802 70.5266ZM40.1802 58.6104V49.5H37.1665V78.6325H40.1802V70.5266C39.5294 68.661 39.1756 66.6561 39.1756 64.5685C39.1756 62.481 39.5294 60.4761 40.1802 58.6104ZM60.4697 71.9375C62.3258 71.1274 63.8167 69.6365 64.6268 67.7805C65.6409 68.887 67.0661 69.5914 68.3081 69.5914C70.5274 69.5914 71.3218 67.3425 71.3218 64.5685C71.3218 61.7945 70.5274 59.5457 68.3081 59.5457C67.0661 59.5457 65.6409 60.25 64.6268 61.3566C63.8167 59.5005 62.3258 58.0097 60.4697 57.1995C61.5763 56.1853 62.2807 54.7603 62.2807 53.5183C62.2807 51.2991 60.0319 50.5046 57.2578 50.5046C54.4837 50.5046 52.235 51.2991 52.235 53.5183C52.235 54.7603 52.9394 56.1853 54.046 57.1995C52.1899 58.0097 50.699 59.5005 49.8889 61.3566C48.8748 60.25 47.4496 59.5457 46.2076 59.5457C43.9883 59.5457 43.1939 61.7945 43.1939 64.5685C43.1939 67.3425 43.9883 69.5914 46.2076 69.5914C47.4496 69.5914 48.8748 68.887 49.8889 67.7805C50.699 69.6365 52.1899 71.1274 54.046 71.9375C52.9394 72.9517 52.235 74.3767 52.235 75.6188C52.235 77.838 54.4837 78.6325 57.2578 78.6325C60.0319 78.6325 62.2807 77.838 62.2807 75.6188C62.2807 74.3767 61.5763 72.9517 60.4697 71.9375ZM63.2852 64.5685C63.2852 67.8974 60.5867 70.5959 57.2578 70.5959C53.929 70.5959 51.2304 67.8974 51.2304 64.5685C51.2304 61.2397 53.929 58.5411 57.2578 58.5411C60.5867 58.5411 63.2852 61.2397 63.2852 64.5685ZM60.2715 64.5685C60.2715 66.233 58.9221 67.5822 57.2578 67.5822C55.5935 67.5822 54.2441 66.233 54.2441 64.5685C54.2441 62.9041 55.5935 61.5548 57.2578 61.5548C58.9221 61.5548 60.2715 62.9041 60.2715 64.5685ZM57.2578 65.5731C57.8126 65.5731 58.2624 65.1233 58.2624 64.5685C58.2624 64.0137 57.8126 63.564 57.2578 63.564C56.703 63.564 56.2533 64.0137 56.2533 64.5685C56.2533 65.1233 56.703 65.5731 57.2578 65.5731Z" fill="url(#paint10_linear_305_32413)"/>
<rect x="53.2397" y="83.6553" width="11.0502" height="4.01827" fill="url(#paint11_linear_305_32413)"/>
<rect x="58.2627" y="88.6782" width="4.01827" height="57.2603" fill="url(#paint12_linear_305_32413)"/>
<rect x="87.395" y="41.4634" width="3.0137" height="8.03653" fill="url(#paint13_linear_305_32413)"/>
<rect x="132.601" y="41.4634" width="3.0137" height="8.03653" fill="url(#paint14_linear_305_32413)"/>
<rect x="141.642" y="59.5459" width="4.01827" height="11.0502" fill="#F7F2E7"/>
<rect x="146.665" y="54.5229" width="4.01827" height="21.0959" fill="#F6EDE4"/>
<path d="M184.838 50.0024L179.312 54.0207V76.6235L184.838 80.1394V50.0024Z" fill="#F4E1CA"/>
<path fill-rule="evenodd" clip-rule="evenodd" d="M99.4497 33.4268L99.4498 33.4584V65.5729C99.4498 70.5662 104.847 74.614 111.505 74.614C118.162 74.614 123.559 70.5662 123.559 65.5729V33.4268H123.559C123.559 28.4336 118.162 24.3857 111.505 24.3857C104.847 24.3857 99.4497 28.4336 99.4497 33.4268Z" fill="url(#paint15_linear_305_32413)"/>
<path fill-rule="evenodd" clip-rule="evenodd" d="M94.4268 12.3312C94.4268 5.67349 99.8239 0.276367 106.482 0.276367H116.527C123.185 0.276367 128.582 5.67349 128.582 12.3312V36.4061L128.582 36.4407C128.582 36.778 128.572 37.1129 128.553 37.4453H126.54C126.562 37.1133 126.573 36.7783 126.573 36.4408C126.573 28.1187 119.827 21.3723 111.504 21.3723C103.182 21.3723 96.436 28.1187 96.436 36.4408C96.436 36.7783 96.4471 37.1133 96.4689 37.4453H94.4558C94.4366 37.1129 94.4268 36.778 94.4268 36.4407L94.4268 36.4408V12.3312ZM97.4405 26.7503C98.2955 25.5117 99.31 24.3916 100.454 23.4196V13.3357C100.454 9.45208 103.602 6.30377 107.486 6.30377H115.523C119.406 6.30377 122.555 9.45208 122.555 13.3357V23.4196C123.699 24.3916 124.713 25.5117 125.568 26.7502V14.3403C125.568 8.23742 120.621 3.29007 114.518 3.29007H108.491C102.388 3.29007 97.4405 8.23742 97.4405 14.3403V26.7503ZM107.486 12.3311C107.486 13.4408 106.587 14.3403 105.477 14.3403C104.367 14.3403 103.468 13.4408 103.468 12.3311C103.468 11.2215 104.367 10.322 105.477 10.322C106.587 10.322 107.486 11.2215 107.486 12.3311ZM117.532 14.3403C118.641 14.3403 119.541 13.4408 119.541 12.3311C119.541 11.2215 118.641 10.322 117.532 10.322C116.422 10.322 115.523 11.2215 115.523 12.3311C115.523 13.4408 116.422 14.3403 117.532 14.3403Z" fill="url(#paint16_linear_305_32413)"/>
<path fill-rule="evenodd" clip-rule="evenodd" d="M67.3038 31.4079C67.1414 31.4143 66.9781 31.4176 66.8142 31.4178C66.9781 31.4179 67.1414 31.4212 67.3038 31.4276V31.4079ZM66.7912 31.4178C59.8609 31.4234 54.2445 37.0432 54.2445 43.9748C54.2445 44.1431 54.2478 44.3105 54.2544 44.4771H54.2346C54.2412 44.3105 54.2445 44.1431 54.2445 43.9748C54.2445 37.0432 48.6281 31.4234 41.6978 31.4178C48.6281 31.4122 54.2445 25.7923 54.2445 18.8607C54.2445 18.6925 54.2412 18.525 54.2346 18.3584H54.2544C54.2478 18.525 54.2445 18.6925 54.2445 18.8607C54.2445 25.7923 59.8609 31.4122 66.7912 31.4178ZM41.1851 31.4079C41.3475 31.4143 41.5108 31.4176 41.6748 31.4178C41.5108 31.4179 41.3475 31.4212 41.1851 31.4276V31.4079Z" fill="#FFFB8D"/>
<path fill-rule="evenodd" clip-rule="evenodd" d="M48.2169 94.7011C48.14 94.7041 48.0627 94.7056 47.985 94.7056C44.7842 94.7056 42.1894 92.1109 42.1894 88.9101C42.1894 88.8324 42.191 88.7551 42.194 88.6782H42.1848C42.1878 88.7551 42.1893 88.8324 42.1893 88.9101C42.1893 92.1109 39.5946 94.7056 36.3938 94.7056C36.3162 94.7056 36.2389 94.7041 36.1621 94.7011V94.7102C36.2389 94.7072 36.3162 94.7057 36.3938 94.7057C39.5946 94.7057 42.1893 97.3004 42.1893 100.501C42.1893 100.579 42.1878 100.656 42.1848 100.733H42.194C42.191 100.656 42.1894 100.579 42.1894 100.501C42.1894 97.3004 44.7842 94.7057 47.985 94.7057C48.0627 94.7057 48.14 94.7072 48.2169 94.7102V94.7011Z" fill="#FFFB8D"/>
<path fill-rule="evenodd" clip-rule="evenodd" d="M172.783 34.9246C172.623 34.9309 172.462 34.9341 172.3 34.9341C165.632 34.9341 160.226 29.5283 160.226 22.8599C160.226 22.6982 160.229 22.5372 160.236 22.377H160.216C160.223 22.5372 160.226 22.6982 160.226 22.8599C160.226 29.5283 154.82 34.9341 148.152 34.9341C147.99 34.9341 147.829 34.9309 147.669 34.9246V34.9435C147.829 34.9372 147.99 34.9341 148.152 34.9341C154.82 34.9341 160.226 40.3398 160.226 47.0082C160.226 47.1699 160.223 47.3309 160.216 47.4911H160.236C160.229 47.3309 160.226 47.1699 160.226 47.0082C160.226 40.3398 165.632 34.9341 172.3 34.9341C172.462 34.9341 172.623 34.9372 172.783 34.9435V34.9246Z" fill="#FFFB8D"/>
<circle cx="111.504" cy="62.5597" r="9.0411" fill="#0E171A"/>
<circle cx="111.504" cy="36.4405" r="9.0411" fill="#0E171A"/>
<path d="M145.157 131.372H142.646V153.975L145.157 152.97V131.372Z" fill="#E1CFBB"/>
<path d="M79.8605 131.372H77.3491V152.468L79.8605 153.473V131.372Z" fill="#ECE6D8"/>
<path d="M83.3767 131.372H80.8652L83.3767 138.404L85.3858 135.39L83.3767 131.372Z" fill="url(#paint17_linear_305_32413)"/>
<path d="M138.628 131.372H141.139L139.13 138.906L137.121 135.39L138.628 131.372Z" fill="#D0B599"/>
<path d="M163.742 88.6782H160.729V143.929C160.729 145.039 161.403 145.939 162.235 145.939C163.068 145.939 163.742 145.039 163.742 143.929V88.6782Z" fill="url(#paint18_linear_305_32413)"/>
<path d="M148.673 131.372H146.162L152.692 150.459L155.203 148.952L148.673 131.372Z" fill="#DAC6B2"/>
<path d="M66.8013 148.952L73.8332 130.87L76.3447 131.372L69.3127 150.459L66.8013 148.952Z" fill="#DAC6B2"/>
<path d="M69.3125 97.7192H71.3216V104.751C71.3216 108.635 74.47 111.783 78.3536 111.783C82.2372 111.783 85.3856 108.635 85.3856 104.751V97.7192H87.3947V105.756C87.3947 109.854 84.327 113.236 80.3627 113.73V121.829H76.3445V113.73C72.3802 113.236 69.3125 109.854 69.3125 105.756V97.7192Z" fill="#F0EDE8"/>
<path d="M91.4131 68.8687V38.4497H94.4599C94.4381 38.8107 94.4268 39.1751 94.4268 39.5424V64.357C94.4268 73.0781 100.723 80.148 108.491 80.148H114.518C122.285 80.148 128.582 73.0781 128.582 64.357V39.5424C128.582 39.1751 128.571 38.8107 128.549 38.4497H131.596V68.8687C131.596 77.5898 125.299 84.6598 117.532 84.6598H115.523V89.6826H107.486V84.6598H105.477C97.7098 84.6598 91.4131 77.5898 91.4131 68.8687Z" fill="url(#paint19_linear_305_32413)"/>
<path d="M143.65 84.6597C148.644 84.6597 152.692 87.808 152.692 91.6916V92.6962H134.609V91.6916C134.609 87.808 138.657 84.6597 143.65 84.6597Z" fill="#D0B599"/>
<path d="M134.609 101.737V100.733H152.692V101.737H134.609Z" fill="#D0B599"/>
<path d="M152.692 97.719V98.7236H134.609V97.719H152.692Z" fill="#D0B599"/>
<path d="M152.692 95.7099V94.7053H134.609V95.7099H152.692Z" fill="#D0B599"/>
<path fill-rule="evenodd" clip-rule="evenodd" d="M134.609 103.746V108.769H134.701C135.233 111.66 138.026 113.984 141.641 114.622V121.829H145.66V114.622C149.275 113.984 152.068 111.66 152.6 108.769H152.692V103.746H134.609ZM143.65 112.788C146.425 112.788 148.673 111.888 148.673 110.778H138.628C138.628 111.888 140.876 112.788 143.65 112.788Z" fill="#D0B599"/>
<path fill-rule="evenodd" clip-rule="evenodd" d="M165.751 77.6279H158.719V80.6417H165.249C166.081 80.6417 166.756 81.3163 166.756 82.1485C166.756 82.9807 166.081 83.6554 165.249 83.6554H158.719V86.669H165.751C167.97 86.669 169.769 84.87 169.769 82.6508V81.6462C169.769 79.427 167.97 77.6279 165.751 77.6279Z" fill="url(#paint20_radial_305_32413)"/>
<path d="M144.153 123.838C148.314 123.838 151.687 123.388 151.687 122.833V125.847C151.687 126.402 148.314 126.852 144.153 126.852C139.992 126.852 136.619 126.402 136.619 125.847V122.833C136.619 123.388 139.992 123.838 144.153 123.838Z" fill="#D0B599"/>
<path d="M77.8516 124.089C82.0126 124.089 85.3859 123.527 85.3859 122.833V126.601C85.3859 127.294 82.0126 127.856 77.8516 127.856C73.6906 127.856 70.3174 127.294 70.3174 126.601V122.833C70.3174 123.527 73.6906 124.089 77.8516 124.089Z" fill="#F3EBDF"/>
<path fill-rule="evenodd" clip-rule="evenodd" d="M77.9981 84.8687C77.8795 85.4405 77.5101 85.6868 76.8899 85.6074C76.8537 84.5924 77.2231 84.3463 77.9981 84.8687Z" fill="#F5EEE3"/>
<path fill-rule="evenodd" clip-rule="evenodd" d="M76.8899 86.3462C77.2593 86.3462 77.6287 86.3462 77.9981 86.3462C77.9981 86.7156 77.9981 87.0849 77.9981 87.4543C77.6287 87.4543 77.2593 87.4543 76.8899 87.4543C76.8899 87.0849 76.8899 86.7156 76.8899 86.3462Z" fill="#F5EEE3"/>
<path fill-rule="evenodd" clip-rule="evenodd" d="M77.2593 88.1931C77.6287 88.1931 77.9981 88.1931 78.3675 88.1931C78.3675 88.5625 78.3675 88.9318 78.3675 89.3012C77.9981 89.3012 77.6287 89.3012 77.2593 89.3012C77.2593 88.9318 77.2593 88.5625 77.2593 88.1931Z" fill="#F5EEE3"/>
<path fill-rule="evenodd" clip-rule="evenodd" d="M77.998 91.1481C78.366 91.1164 78.6736 91.2398 78.9215 91.5175C79.0356 91.9852 79.2203 92.4162 79.4756 92.8104C78.37 92.9053 77.8776 92.3512 77.998 91.1481Z" fill="#F5EEE3"/>
<path fill-rule="evenodd" clip-rule="evenodd" d="M76.8899 83.3911C77.5684 83.4425 77.6914 83.6888 77.2593 84.1299C76.9645 83.9611 76.8415 83.7147 76.8899 83.3911Z" fill="#F5EEE3"/>
<path fill-rule="evenodd" clip-rule="evenodd" d="M77.9981 94.4726C79.0674 94.8046 80.0526 95.2974 80.9531 95.9501C80.9941 96.178 81.1171 96.3627 81.3225 96.5042C80.8449 96.6852 80.3521 96.7469 79.845 96.6889C79.6426 95.7344 79.0268 95.365 77.9981 95.5807C77.9981 95.2113 77.9981 94.842 77.9981 94.4726Z" fill="#F5EEE3"/>
<path fill-rule="evenodd" clip-rule="evenodd" d="M79.1062 83.7605C79.2292 83.7605 79.3526 83.7605 79.4756 83.7605C80.0751 84.7633 80.3215 85.8715 80.2144 87.0849C78.7823 87.0912 78.5363 86.6605 79.4756 85.7921C78.9429 85.6528 78.5736 85.3451 78.3675 84.8686C78.691 84.917 78.9374 84.794 79.1062 84.4992C78.1347 83.7579 78.1347 83.5115 79.1062 83.7605Z" fill="#F5EEE3"/>
<path fill-rule="evenodd" clip-rule="evenodd" d="M80.9531 83.7605C80.9531 84.0069 81.0761 84.1299 81.3225 84.1299C81.5319 84.695 81.778 85.2491 82.0613 85.7921C81.5279 86.0806 81.0355 86.0189 80.5837 85.6074C81.0857 84.9403 80.9624 84.3862 80.2144 83.9452C80.4338 83.7738 80.6802 83.7121 80.9531 83.7605Z" fill="#F5EEE3"/>
<path fill-rule="evenodd" clip-rule="evenodd" d="M82.0613 84.4993C82.9009 84.6681 83.3933 85.1605 83.5388 85.9768C82.8 85.7304 82.3076 85.238 82.0613 84.4993Z" fill="#F5EEE3"/>
<path fill-rule="evenodd" clip-rule="evenodd" d="M80.9531 86.7156C81.321 86.6838 81.6287 86.8072 81.8766 87.0849C82.175 87.8529 82.1134 88.5917 81.6919 89.3012C81.3225 89.1782 81.0761 88.9319 80.9531 88.5625C81.3354 87.9611 81.3354 87.3454 80.9531 86.7156Z" fill="#F5EEE3"/>
<path fill-rule="evenodd" clip-rule="evenodd" d="M82.4307 86.3462C82.8318 86.3905 83.0782 86.6369 83.1694 87.0849C83.4682 87.6338 83.4682 88.1262 83.1694 88.5625C82.8085 87.8566 82.5625 87.1178 82.4307 86.3462Z" fill="#F5EEE3"/>
<path fill-rule="evenodd" clip-rule="evenodd" d="M79.4756 87.4543C79.8767 87.4986 80.1231 87.745 80.2144 88.1931C79.9174 89.1007 79.548 89.1007 79.1062 88.1931C79.2403 87.9408 79.3633 87.6944 79.4756 87.4543Z" fill="#F5EEE3"/>
<path fill-rule="evenodd" clip-rule="evenodd" d="M83.5388 85.9768C84.3492 86.6125 84.7803 87.4746 84.8316 88.5625C84.9225 89.8147 85.1072 91.0458 85.3857 92.2563C85.1541 92.595 85.0307 92.9644 85.0163 93.3644C85.0769 94.357 85.0152 95.3421 84.8316 96.3195C83.5502 95.6055 82.9345 94.4973 82.9847 92.995C82.6833 92.5064 82.2522 92.2603 81.6919 92.2563C82.2449 91.9586 82.8606 91.7126 83.5388 91.5175C83.4461 92.6198 83.6925 93.7279 84.2776 94.842C84.7053 91.8976 84.4589 88.9426 83.5388 85.9768Z" fill="#F5EEE3"/>
<path fill-rule="evenodd" clip-rule="evenodd" d="M78.3675 89.6706C79.1062 89.6706 79.845 89.6706 80.5837 89.6706C80.6646 90.1046 80.5416 90.474 80.2144 90.7788C79.6725 90.3373 79.1184 90.3373 78.5521 90.7788C77.9305 90.5291 77.8688 90.1597 78.3675 89.6706Z" fill="#F5EEE3"/>
<path fill-rule="evenodd" clip-rule="evenodd" d="M82.4307 88.9318C82.8 88.9318 83.1694 88.9318 83.5388 88.9318C83.7287 89.675 83.79 90.4138 83.7235 91.1481C82.9153 90.6351 82.4846 89.8963 82.4307 88.9318Z" fill="#F5EEE3"/>
<path fill-rule="evenodd" clip-rule="evenodd" d="M81.3225 90.04C82.4561 90.211 82.6408 90.7034 81.8766 91.5175C81.4377 91.1249 81.253 90.6321 81.3225 90.04Z" fill="#F5EEE3"/>
<path fill-rule="evenodd" clip-rule="evenodd" d="M81.6919 92.2563C80.8778 93.2159 80.262 93.0312 79.845 91.7022C79.968 91.5175 80.0914 91.3328 80.2144 91.1481C80.5036 91.8086 80.996 92.178 81.6919 92.2563Z" fill="#F5EEE3"/>
<path fill-rule="evenodd" clip-rule="evenodd" d="M80.9531 95.2113C80.2362 94.8656 79.6204 94.3728 79.1062 93.7338C79.4257 93.3338 79.7951 93.2724 80.2144 93.5491C80.4977 94.0921 80.7437 94.6462 80.9531 95.2113Z" fill="#F5EEE3"/>
<path fill-rule="evenodd" clip-rule="evenodd" d="M82.4306 95.9501C82.3076 95.9501 82.1842 95.9501 82.0612 95.9501C81.6919 95.8271 81.4455 95.5807 81.3225 95.2113C81.4769 94.9446 81.7229 94.76 82.0612 94.6573C81.5171 94.395 81.2708 93.9643 81.3225 93.3644C81.6919 93.3644 82.0612 93.3644 82.4306 93.3644C82.7771 94.2546 82.7771 95.1168 82.4306 95.9501Z" fill="#F5EEE3"/>
<path fill-rule="evenodd" clip-rule="evenodd" d="M82.4306 95.9501C83.0227 95.8807 83.5155 96.0653 83.9082 96.5042C83.1831 96.8159 82.6907 96.6312 82.4306 95.9501Z" fill="#F5EEE3"/>
<path fill-rule="evenodd" clip-rule="evenodd" d="M76.1512 84.8686C75.8819 85.8663 75.7585 86.8511 75.7818 87.8237C76.6447 88.4047 76.6447 88.8971 75.7818 89.3012C75.4124 89.1782 75.166 88.9318 75.043 88.5625C75.043 87.8237 75.043 87.0849 75.043 86.3462C74.7686 86.0942 74.5226 85.8479 74.3042 85.6074C74.6278 85.6558 74.8742 85.5328 75.043 85.238C74.7379 84.8867 74.6766 84.5174 74.8583 84.1299C74.9813 84.2529 75.1047 84.3763 75.2277 84.4993C75.7877 83.557 76.0954 83.68 76.1512 84.8686Z" fill="#F5EEE3"/>
<path fill-rule="evenodd" clip-rule="evenodd" d="M74.3042 85.238C74.0276 85.6189 73.7816 86.0499 73.5655 86.5309C74.0579 87.0232 74.0579 87.516 73.5655 88.0084C74.3578 88.6799 74.3578 89.234 73.5655 89.6706C73.4103 88.5196 73.041 87.5345 72.4573 86.7156C72.789 85.8272 73.3431 85.0884 74.1196 84.4993C74.291 84.7187 74.3526 84.965 74.3042 85.238Z" fill="#F5EEE3"/>
<path fill-rule="evenodd" clip-rule="evenodd" d="M72.4574 87.0849C72.3646 89.3936 72.3646 91.8562 72.4574 94.4726C71.7426 94.7359 71.6196 95.1053 72.088 95.5807C72.1689 96.0147 72.0459 96.3841 71.7186 96.6889C71.3847 94.0478 71.2613 91.4621 71.3492 88.9318C71.4541 88.0974 71.8235 87.4816 72.4574 87.0849Z" fill="#F5EEE3"/>
<path fill-rule="evenodd" clip-rule="evenodd" d="M75.4124 89.6706C75.7818 89.6706 76.1512 89.6706 76.5205 89.6706C76.4773 90.4035 76.7237 91.0189 77.2593 91.5175C77.0129 91.6405 76.7669 91.7639 76.5205 91.8869C76.3746 91.1947 75.8822 90.6406 75.043 90.2247C75.2484 90.0832 75.3714 89.8985 75.4124 89.6706Z" fill="#F5EEE3"/>
<path fill-rule="evenodd" clip-rule="evenodd" d="M73.1961 90.04C73.5655 90.04 73.9349 90.04 74.3042 90.04C74.2407 90.7758 74.4871 91.3912 75.043 91.8869C74.9658 92.1034 74.8424 92.288 74.6736 92.441C75.9192 93.4003 75.9192 94.0773 74.6736 94.4726C74.6696 93.2204 74.1768 92.2356 73.1961 91.5175C73.5149 91.0647 73.5149 90.5719 73.1961 90.04Z" fill="#F5EEE3"/>
<path fill-rule="evenodd" clip-rule="evenodd" d="M77.9981 94.4726C77.2253 94.45 76.6713 94.0806 76.3359 93.3644C76.2402 92.0287 76.6713 91.9057 77.6287 92.995C77.9043 93.4516 78.0272 93.9444 77.9981 94.4726Z" fill="#F5EEE3"/>
<path fill-rule="evenodd" clip-rule="evenodd" d="M74.3042 95.5807C74.0313 95.5323 73.7849 95.594 73.5655 95.7654C74.6116 96.4702 74.4886 96.7779 73.1961 96.6889C73.2836 96.212 73.1606 95.8426 72.8267 95.5807C73.0635 94.5889 73.1865 93.6038 73.1961 92.6257C73.5681 93.6193 73.9375 94.6041 74.3042 95.5807Z" fill="#F5EEE3"/>
<path fill-rule="evenodd" clip-rule="evenodd" d="M75.4124 96.6888C75.166 96.3195 74.92 95.9501 74.6736 95.5807C75.2318 94.8637 75.9705 94.679 76.8899 95.0266C76.0836 95.4717 75.5912 96.0258 75.4124 96.6888Z" fill="#F5EEE3"/>
<path fill-rule="evenodd" clip-rule="evenodd" d="M77.9981 96.3195C77.6848 96.735 77.3154 96.735 76.8899 96.3195C76.8415 96.0465 76.9032 95.8001 77.0746 95.5807C77.3361 95.9061 77.6442 96.1522 77.9981 96.3195Z" fill="#F5EEE3"/>
<path fill-rule="evenodd" clip-rule="evenodd" d="M110.5 55.565C114.617 55.8716 117.9 58.0162 118.454 60.7378C118.508 60.5129 118.536 60.2825 118.536 60.0479C118.536 57.5513 115.351 55.5273 111.422 55.5273C111.11 55.5273 110.802 55.5402 110.5 55.565Z" fill="#D9D9D9" fill-opacity="0.9"/>
<path fill-rule="evenodd" clip-rule="evenodd" d="M110.5 29.4463C114.617 29.7529 117.9 31.8976 118.454 34.6192C118.508 34.3942 118.536 34.1638 118.536 33.9292C118.536 31.4326 115.351 29.4087 111.422 29.4087C111.11 29.4087 110.802 29.4215 110.5 29.4463Z" fill="#D9D9D9" fill-opacity="0.9"/>
<path fill-rule="evenodd" clip-rule="evenodd" d="M108.491 68.5926C109.209 69.2132 110.263 69.619 111.734 69.619C115.063 69.619 118.264 67.0403 118.264 65.0985C118.264 64.1314 117.586 64.6338 116.499 65.44C116.355 65.5463 116.205 65.6579 116.048 65.772C114.663 67.1066 111.533 68.6145 109.223 68.6145C108.975 68.6145 108.73 68.607 108.491 68.5926Z" fill="#D9D9D9" fill-opacity="0.44"/>
<path fill-rule="evenodd" clip-rule="evenodd" d="M108.491 41.4696C109.209 42.0902 110.263 42.496 111.734 42.496C115.063 42.496 118.264 39.9173 118.264 37.9754C118.264 37.0083 117.586 37.5107 116.499 38.317C116.355 38.4232 116.205 38.5348 116.048 38.649C114.663 39.9835 111.533 41.4914 109.223 41.4914C108.975 41.4914 108.73 41.484 108.491 41.4696Z" fill="#D9D9D9" fill-opacity="0.44"/>
<path d="M109.491 59.8785C109.196 59.6668 108.855 59.5458 108.491 59.5458C107.381 59.5458 106.482 60.6702 106.482 62.0572C106.482 62.1141 106.483 62.1707 106.486 62.2267C105.883 61.7933 105.477 60.9799 105.477 60.048C105.477 58.661 106.377 57.5366 107.486 57.5366C108.55 57.5366 109.421 58.5705 109.491 59.8785Z" fill="#D9D9D9"/>
<path d="M109.495 61.5549C109.495 62.1097 109.046 62.5595 108.491 62.5595C107.936 62.5595 107.486 62.1097 107.486 61.5549C107.486 61.0001 107.936 60.5503 108.491 60.5503C109.046 60.5503 109.495 61.0001 109.495 61.5549Z" fill="#D9D9D9"/>
<path d="M109.491 33.7598C109.196 33.5482 108.855 33.4271 108.491 33.4271C107.381 33.4271 106.482 34.5515 106.482 35.9385C106.482 35.9955 106.483 36.052 106.486 36.1081C105.883 35.6746 105.477 34.8613 105.477 33.9294C105.477 32.5424 106.377 31.418 107.486 31.418C108.55 31.418 109.421 32.4519 109.491 33.7598Z" fill="#D9D9D9"/>
<path d="M109.495 35.4362C109.495 35.991 109.046 36.4408 108.491 36.4408C107.936 36.4408 107.486 35.991 107.486 35.4362C107.486 34.8814 107.936 34.4317 108.491 34.4317C109.046 34.4317 109.495 34.8814 109.495 35.4362Z" fill="#D9D9D9"/>
<defs>
<linearGradient id="paint0_linear_305_32413" x1="34.6553" y1="142.925" x2="78.8562" y2="199.181" gradientUnits="userSpaceOnUse">
<stop stop-color="#FAECD7"/>
<stop offset="1" stop-color="#F5DBC2"/>
</linearGradient>
<linearGradient id="paint1_linear_305_32413" x1="121.55" y1="169.044" x2="207.943" y2="169.044" gradientUnits="userSpaceOnUse">
<stop stop-color="#DCC0A3"/>
<stop offset="1" stop-color="#C4A17C"/>
</linearGradient>
<linearGradient id="paint2_linear_305_32413" x1="176.801" y1="114.797" x2="221.002" y2="138.906" gradientUnits="userSpaceOnUse">
<stop stop-color="#DCC3A7"/>
<stop offset="1" stop-color="#C9A987"/>
</linearGradient>
<linearGradient id="paint3_linear_305_32413" x1="84.4756" y1="222.331" x2="75.3403" y2="178.085" gradientUnits="userSpaceOnUse">
<stop stop-color="#CEB090"/>
<stop offset="1" stop-color="#6B4A33"/>
</linearGradient>
<linearGradient id="paint4_linear_305_32413" x1="122.555" y1="222.788" x2="162.235" y2="193.153" gradientUnits="userSpaceOnUse">
<stop stop-color="#BE9F7E"/>
<stop offset="0.716077" stop-color="#866043"/>
<stop offset="1" stop-color="#5E3A24"/>
</linearGradient>
<linearGradient id="paint5_linear_305_32413" x1="154.701" y1="65.5733" x2="173.788" y2="65.5733" gradientUnits="userSpaceOnUse">
<stop stop-color="#F8E4CD"/>
<stop offset="1" stop-color="#F2DCC4"/>
</linearGradient>
<linearGradient id="paint6_linear_305_32413" x1="98.4451" y1="167.034" x2="105.477" y2="111.281" gradientUnits="userSpaceOnUse">
<stop stop-color="#74675B"/>
<stop offset="0.305162" stop-color="#CDB094"/>
</linearGradient>
<linearGradient id="paint7_linear_305_32413" x1="105.477" y1="104.249" x2="133.605" y2="164.523" gradientUnits="userSpaceOnUse">
<stop offset="0.734182" stop-color="#D0B599"/>
<stop offset="0.860457" stop-color="#94745D"/>
</linearGradient>
<linearGradient id="paint8_linear_305_32413" x1="118.034" y1="96.7147" x2="141.139" y2="161.007" gradientUnits="userSpaceOnUse">
<stop offset="0.621375" stop-color="#F0DECE"/>
<stop offset="0.874605" stop-color="#7E6550"/>
</linearGradient>
<linearGradient id="paint9_linear_305_32413" x1="103.97" y1="97.7191" x2="85.3857" y2="153.975" gradientUnits="userSpaceOnUse">
<stop offset="0.765194" stop-color="#F3F2F7"/>
<stop offset="1" stop-color="#B09D88"/>
</linearGradient>
<linearGradient id="paint10_linear_305_32413" x1="57.2578" y1="46.4863" x2="57.2578" y2="82.6507" gradientUnits="userSpaceOnUse">
<stop offset="0.12" stop-color="#F5F6F3"/>
<stop offset="0.755" stop-color="#F3EBDC"/>
</linearGradient>
<linearGradient id="paint11_linear_305_32413" x1="58.7649" y1="83.6553" x2="58.7649" y2="87.6735" gradientUnits="userSpaceOnUse">
<stop offset="0.12" stop-color="#F5F6F3"/>
<stop offset="0.755" stop-color="#F3EBDC"/>
</linearGradient>
<linearGradient id="paint12_linear_305_32413" x1="60.2718" y1="88.6782" x2="60.2718" y2="145.939" gradientUnits="userSpaceOnUse">
<stop offset="0.12" stop-color="#F5F6F3"/>
<stop offset="0.755" stop-color="#F3EBDC"/>
</linearGradient>
<linearGradient id="paint13_linear_305_32413" x1="88.9019" y1="41.4634" x2="88.9019" y2="49.4999" gradientUnits="userSpaceOnUse">
<stop stop-color="#F5F6F6"/>
<stop offset="1" stop-color="#F4E3D0"/>
</linearGradient>
<linearGradient id="paint14_linear_305_32413" x1="134.107" y1="41.4634" x2="134.107" y2="49.4999" gradientUnits="userSpaceOnUse">
<stop stop-color="#F5F6F6"/>
<stop offset="1" stop-color="#F4E3D0"/>
</linearGradient>
<linearGradient id="paint15_linear_305_32413" x1="99.4497" y1="53.0159" x2="126.071" y2="55.025" gradientUnits="userSpaceOnUse">
<stop stop-color="#FAF3E6"/>
<stop offset="1" stop-color="#F6DFC7"/>
</linearGradient>
<linearGradient id="paint16_linear_305_32413" x1="94.4268" y1="16.3494" x2="128.582" y2="34.9339" gradientUnits="userSpaceOnUse">
<stop stop-color="#F2F2EE"/>
<stop offset="0.717775" stop-color="#E7D1BA"/>
<stop offset="0.887301" stop-color="#BFA894"/>
</linearGradient>
<linearGradient id="paint17_linear_305_32413" x1="83.3767" y1="134.888" x2="85.3858" y2="136.395" gradientUnits="userSpaceOnUse">
<stop stop-color="#EADACC"/>
<stop offset="1" stop-color="#BAAFA5"/>
</linearGradient>
<linearGradient id="paint18_linear_305_32413" x1="162.235" y1="88.6782" x2="162.235" y2="145.939" gradientUnits="userSpaceOnUse">
<stop stop-color="#4E4A3F"/>
<stop offset="0.11" stop-color="#DACAB9"/>
</linearGradient>
<linearGradient id="paint19_linear_305_32413" x1="91.4131" y1="53.0159" x2="131.596" y2="64.5684" gradientUnits="userSpaceOnUse">
<stop stop-color="#F5F6F6"/>
<stop offset="1" stop-color="#F4E3D0"/>
</linearGradient>
<radialGradient id="paint20_radial_305_32413" cx="0" cy="0" r="1" gradientUnits="userSpaceOnUse" gradientTransform="translate(158.719 82.6508) rotate(-24.444) scale(12.1382 14.8356)">
<stop offset="0.095" stop-color="#9D8C7E"/>
<stop offset="0.23" stop-color="#E9D8C5"/>
<stop offset="0.87" stop-color="#F7EEE3"/>
</radialGradient>
</defs>
</svg>
